<svg xmlns="http://www.w3.org/2000/svg" xmlns:xlink="http://www.w3.org/1999/xlink" width="50" height="50" viewBox="0 0 100 100"><g><g transform="translate(50 50) scale(0.69 0.69) rotate(0) translate(-50 -50)" style="fill:#000000"><svg fill="#000000" xmlns="http://www.w3.org/2000/svg" xmlns:xlink="http://www.w3.org/1999/xlink" xml:space="preserve" style="shape-rendering:geometricPrecision;text-rendering:geometricPrecision;image-rendering:optimizeQuality;" viewBox="0 0 21.4974 20.6379" x="0px" y="0px" fill-rule="evenodd" clip-rule="evenodd"><defs><style type="text/css">

    .fil0 {fill:#000000}

  </style></defs><g><polygon class="fil0" points="-0,0 21.4974,0 21.4974,0.3969 -0,0.3969 "></polygon><polygon class="fil0" points="-0,1.1245 21.4974,1.1245 21.4974,1.5214 -0,1.5214 "></polygon><polygon class="fil0" points="-0,2.249 21.4974,2.249 21.4974,2.6459 -0,2.6459 "></polygon><polygon class="fil0" points="-0,3.3735 21.4974,3.3735 21.4974,3.7704 -0,3.7704 "></polygon><polygon class="fil0" points="-0,4.498 21.4974,4.498 21.4974,4.8949 -0,4.8949 "></polygon><polygon class="fil0" points="-0,5.6225 21.4974,5.6225 21.4974,6.0194 -0,6.0194 "></polygon><polygon class="fil0" points="-0,6.747 21.4974,6.747 21.4974,7.1439 -0,7.1439 "></polygon><polygon class="fil0" points="-0,7.8715 21.4974,7.8715 21.4974,8.2684 -0,8.2684 "></polygon><polygon class="fil0" points="-0,8.996 21.4974,8.996 21.4974,9.3929 -0,9.3929 "></polygon><polygon class="fil0" points="-0,10.1205 21.4974,10.1205 21.4974,10.5174 -0,10.5174 "></polygon><polygon class="fil0" points="-0,11.245 21.4974,11.245 21.4974,11.6419 -0,11.6419 "></polygon><polygon class="fil0" points="-0,12.3695 21.4974,12.3695 21.4974,12.7664 -0,12.7664 "></polygon><polygon class="fil0" points="-0,13.494 21.4974,13.494 21.4974,13.8909 -0,13.8909 "></polygon><polygon class="fil0" points="-0,14.6185 21.4974,14.6185 21.4974,15.0154 -0,15.0154 "></polygon><polygon class="fil0" points="-0,15.743 21.4974,15.743 21.4974,16.1399 -0,16.1399 "></polygon><polygon class="fil0" points="-0,16.8675 21.4974,16.8675 21.4974,17.2644 -0,17.2644 "></polygon><polygon class="fil0" points="-0,17.992 21.4974,17.992 21.4974,18.3889 -0,18.3889 "></polygon><polygon class="fil0" points="-0,19.1165 21.4974,19.1165 21.4974,19.5134 -0,19.5134 "></polygon><polygon class="fil0" points="-0,20.241 21.4974,20.241 21.4974,20.6379 -0,20.6379 "></polygon></g></svg></g></g></svg>
