<svg xmlns="http://www.w3.org/2000/svg" xmlns:xlink="http://www.w3.org/1999/xlink" width="50" height="50" viewBox="0 0 100 100"><g><g transform="translate(50 50) scale(0.69 0.69) rotate(0) translate(-50 -50)" style="fill:#000000"><svg fill="#000000" xmlns:dc="http://purl.org/dc/elements/1.1/" xmlns:cc="http://creativecommons.org/ns#" xmlns:rdf="http://www.w3.org/1999/02/22-rdf-syntax-ns#" xmlns:svg="http://www.w3.org/2000/svg" xmlns="http://www.w3.org/2000/svg" xmlns:sodipodi="http://sodipodi.sourceforge.net/DTD/sodipodi-0.dtd" xmlns:inkscape="http://www.inkscape.org/namespaces/inkscape" version="1.1" x="0px" y="0px" viewBox="0 0 100 100"><g transform="translate(0,-952.36218)"><path style="text-indent:0;text-transform:none;direction:ltr;block-progression:tb;baseline-shift:baseline;color:#000000;enable-background:accumulate;" d="m 50,966.36215 c -7.98285,0 -15.2368,1.4526 -20.65625,3.9688 C 23.9243,972.84705 20,976.60825 20,981.36215 l 0,42.00005 c 0,4.7539 3.92431,8.4838 9.34375,11 5.41944,2.5162 12.6734,4 20.65625,4 7.9829,0 15.23682,-1.4838 20.65625,-4 5.41943,-2.5162 9.34375,-6.2461 9.34375,-11 l 0,-42.00005 c 0,-4.7539 -3.92433,-8.5151 -9.34375,-11.0312 C 65.23683,967.81475 57.9829,966.36215 50,966.36215 z m 0,4 c 7.48106,0 14.25418,1.4048 18.96875,3.5938 4.71457,2.1889 7.03125,4.9803 7.03125,7.4062 0,2.4258 -2.31668,5.1861 -7.03125,7.375 -4.71457,2.1889 -11.48769,3.625 -18.96875,3.625 -7.48102,0 -14.25415,-1.4361 -18.96875,-3.625 -4.7146,-2.1889 -7.03125,-4.9492 -7.03125,-7.375 0,-2.4258 2.31665,-5.2173 7.03125,-7.4062 4.7146,-2.189 11.48773,-3.5938 18.96875,-3.5938 z m -26,18.6562 c 1.48368,1.275 3.31146,2.4002 5.34375,3.3438 5.41945,2.5162 12.6734,4 20.65625,4 7.9829,0 15.23683,-1.4838 20.65625,-4 2.03228,-0.9436 3.86007,-2.0688 5.34375,-3.3438 l 0,6.3438 c 0,2.4258 -2.31668,5.18615 -7.03125,7.37495 -4.71457,2.1889 -11.48769,3.625 -18.96875,3.625 -7.48102,0 -14.25415,-1.4361 -18.96875,-3.625 C 26.31665,1000.5483 24,997.78795 24,995.36215 l 0,-6.3438 z m 0,13.96875 c 1.48315,1.2896 3.29812,2.4253 5.34375,3.375 5.41945,2.5162 12.6734,4 20.65625,4 7.9829,0 15.23683,-1.4838 20.65625,-4 2.04561,-0.9498 3.8606,-2.0855 5.34375,-3.375 l 0,6.375 c 0,2.4258 -2.31668,5.1862 -7.03125,7.3751 -4.71457,2.1889 -11.48769,3.625 -18.96875,3.625 -7.48102,0 -14.25415,-1.4361 -18.96875,-3.625 C 26.31665,1014.5483 24,1011.7879 24,1009.3621 l 0,-6.375 z m 0,14.0001 c 1.48315,1.2895 3.29812,2.4252 5.34375,3.375 5.41945,2.5162 12.6734,4 20.65625,4 7.9829,0 15.23683,-1.4838 20.65625,-4 2.04561,-0.9497 3.8606,-2.0854 5.34375,-3.375 l 0,6.375 c 0,2.4258 -2.31667,5.1861 -7.03125,7.375 -4.71458,2.1889 -11.48769,3.625 -18.96875,3.625 -7.48102,0 -14.25416,-1.4361 -18.96875,-3.625 C 26.31666,1028.5483 24,1025.788 24,1023.3622 l 0,-6.375 z" fill="#000000" fill-opacity="1" stroke="none" marker="none" visibility="visible" display="inline" overflow="visible"></path></g></svg></g></g></svg>
