<?xml version="1.0" encoding="utf-8"?>
<!-- Generator: Adobe Illustrator 27.0.0, SVG Export Plug-In . SVG Version: 6.00 Build 0)  -->
<svg version="1.1" id="Layer_1" xmlns="http://www.w3.org/2000/svg" xmlns:xlink="http://www.w3.org/1999/xlink" x="0px" y="0px"
	 width="30" height="30" viewBox="0 0 30 30" style="enable-background:new 0 0 30 30;" xml:space="preserve">
<style type="text/css">
	.st0{fill:#D4E9F2;}
</style>
<g>
	<g transform="translate(50 50) scale(0.69 0.69) rotate(0) translate(-50 -50)">
		<path class="st0" d="M12.8-7.6c-0.3-0.2-0.7-0.2-1,0L5.3-4.3v-2.4c0-1.7-1.3-3-3-3h-14c-1.7,0-3,1.3-3,3v12c0,1.7,1.3,3,3,3h14
			c1.7,0,3-1.3,3-3V2.9l6.6,3.3c0.5,0.2,1.1,0,1.3-0.4c0.1-0.1,0.1-0.3,0.1-0.5v-12C13.3-7.1,13.1-7.4,12.8-7.6z M3.3,5.3
			c0,0.6-0.4,1-1,1h-14c-0.6,0-1-0.4-1-1v-12c0-0.6,0.4-1,1-1h14c0.6,0,1,0.4,1,1V5.3z M11.3,3.7l-6-3v-2.8l6-3V3.7z"/>
		<path class="st0" d="M-4.7-4.7c-2.2,0-4,1.8-4,4s1.8,4,4,4s4-1.8,4-4S-2.5-4.7-4.7-4.7z M-4.7,1.3c-1.1,0-2-0.9-2-2s0.9-2,2-2
			s2,0.9,2,2S-3.6,1.3-4.7,1.3z"/>
	</g>
</g>
</svg>
