<?xml version="1.0" encoding="utf-8"?>
<!-- Generator: Adobe Illustrator 27.0.0, SVG Export Plug-In . SVG Version: 6.00 Build 0)  -->
<svg version="1.1" id="Layer_1" xmlns="http://www.w3.org/2000/svg" xmlns:xlink="http://www.w3.org/1999/xlink" x="0px" y="0px"
	 width="30" height="30" viewBox="0 0 30 30" style="enable-background:new 0 0 30 30;" xml:space="preserve">
<style type="text/css">
	.st0{fill:#D4E9F2;}
</style>
<g>
	<g transform="translate(50 50) scale(0.69 0.69) rotate(0) translate(-50 -50)">
		<g>
			<path class="st0" d="M-0.7-13.2c-6.9,0-12.5,5.6-12.5,12.5v10c0,1.4,1.1,2.5,2.5,2.5H-7c0.7,0,1.2-0.6,1.2-1.2V3
				c0-0.7-0.6-1.3-1.2-1.3h-3.8v-2.5c0-5.5,4.5-10,10-10s10,4.5,10,10v2.5H5.5C4.8,1.8,4.3,2.3,4.3,3v7.5c0,0.7,0.6,1.2,1.2,1.2h3.7
				c1.4,0,2.5-1.1,2.5-2.5v-10C11.8-7.6,6.2-13.2-0.7-13.2z"/>
		</g>
	</g>
</g>
</svg>
