<?xml version="1.0" encoding="utf-8"?>
<!-- Generator: Adobe Illustrator 27.0.0, SVG Export Plug-In . SVG Version: 6.00 Build 0)  -->
<svg version="1.1" id="Layer_1" xmlns="http://www.w3.org/2000/svg" xmlns:xlink="http://www.w3.org/1999/xlink" x="0px" y="0px"
	 width="30" height="30" viewBox="0 0 30 30" style="enable-background:new 0 0 30 30;" xml:space="preserve">
<style type="text/css">
	.st0{fill:#D4E9F2;}
</style>
<g transform="translate(50 50) scale(0.69 0.69) rotate(0) translate(-50 -50)">
	<path class="st0" d="M8.5,10.8C8.5,10.8,8.5,10.8,8.5,10.8C8.4,10.8,8.4,10.8,8.5,10.8c-0.1,0-0.2,0-0.2,0C8.2,10.7,7.9,10.1,7.9,9
		c0-1.1,0.3-1.7,0.4-1.8c0.3,0,0.5-0.2,0.5-0.5v-19.5c0-0.3-0.2-0.5-0.5-0.5H-7.5c-1.5,0-2.8,1.2-2.8,2.8V9c0,0,0,0,0,0
		c0,1.5,1.2,2.7,2.8,2.7h0H8.3c0.3,0,0.5-0.2,0.5-0.5C8.8,11.1,8.7,10.9,8.5,10.8z M7.8,6.3H-5.1v-18.5H7.8V6.3z M-7.5-12.2h1.4V6.3
		h-1.4c-0.7,0-1.3,0.2-1.7,0.6v-17.4C-9.2-11.4-8.5-12.2-7.5-12.2z M-7.5,10.8c-1,0-1.8-0.8-1.8-1.8v0c0-1,0.8-1.7,1.7-1.7H7.2
		C7,7.8,6.9,8.4,6.9,9s0.1,1.2,0.3,1.8H-7.5z"/>
</g>
</svg>
