<svg height='20' width='20'  fill="#1A1A1A" xmlns="http://www.w3.org/2000/svg" xmlns:xlink="http://www.w3.org/1999/xlink" version="1.1" x="0px" y="0px" viewBox="0 0 100 100" style="enable-background:new 0 0 100 100;" xml:space="preserve"><g><g><path d="M56.3,45.4c0-9.3,7.6-16.9,16.9-16.9v-3.2V7.1H19.1c-5,0-9.1,4.1-9.1,9.1v67.5c0-5,4.1-9.1,9.1-9.1h54.1V62.3    C63.9,62.3,56.3,54.7,56.3,45.4z"></path></g><g><path d="M73.2,95H19.1c-6.2,0-11.3-5-11.3-11.3s5-11.3,11.3-11.3h54.1c1.2,0,2.1,0.9,2.1,2.1v18.3C75.3,94.1,74.4,95,73.2,95z     M19.1,76.7c-3.9,0-7,3.2-7,7s3.2,7,7,7h52V76.7H19.1z"></path></g><g><path d="M9.9,85.9c-1.2,0-2.1-0.9-2.1-2.1V16.3C7.8,10,12.9,5,19.1,5h54.1c1.2,0,2.1,0.9,2.1,2.1v21.4c0,1.2-0.9,2.1-2.1,2.1    c-8.1,0-14.8,6.6-14.8,14.8s6.6,14.8,14.8,14.8c1.2,0,2.1,0.9,2.1,2.1v12.3c0,1.2-0.9,2.1-2.1,2.1H19.1c-3.9,0-7,3.2-7,7    C12,84.9,11.1,85.9,9.9,85.9z M19.1,9.2c-3.9,0-7,3.2-7,7V75c1.9-1.5,4.4-2.5,7-2.5h52v-8.2c-9.5-1.1-16.9-9.1-16.9-18.9    s7.4-17.8,16.9-18.9V9.2H19.1z"></path></g><g><path d="M73.2,64.4c-10.5,0-19-8.5-19-19s8.5-19,19-19s19,8.5,19,19S83.7,64.4,73.2,64.4z M73.2,30.7c-8.1,0-14.8,6.6-14.8,14.8    s6.6,14.8,14.8,14.8S88,53.6,88,45.4S81.3,30.7,73.2,30.7z"></path></g><g><g><path d="M73.2,55.4c-1.2,0-2.1-0.9-2.1-2.1v-8.7c0-1.2,0.9-2.1,2.1-2.1s2.1,0.9,2.1,2.1v8.7C75.3,54.5,74.4,55.4,73.2,55.4z"></path></g><g><circle cx="73.2" cy="38.4" r="2.1"></circle></g></g></g></svg>
