<svg xmlns="http://www.w3.org/2000/svg" xmlns:xlink="http://www.w3.org/1999/xlink" width="30" height="30" viewBox="0 0 100 100"><g><g transform="translate(50 50) scale(0.69 0.69) rotate(0) translate(-50 -50)" style="fill:#000000"><svg fill="#000000" xmlns="http://www.w3.org/2000/svg" xmlns:xlink="http://www.w3.org/1999/xlink" version="1.1" x="0px" y="0px" viewBox="0 0 50 50" enable-background="new 0 0 50 50" xml:space="preserve"><g><path d="M25,32.1c-2.7,0-5,2.2-5,5s2.2,5,5,5c2.7,0,5-2.2,5-5S27.7,32.1,25,32.1z M25,40c-1.6,0-3-1.3-3-3s1.3-3,3-3   c1.6,0,3,1.3,3,3S26.6,40,25,40z"></path><path d="M49,42.1V22.5c0,0,0,0,0,0s0,0,0,0V12.3c0-1.7-1.3-3-3-3H35V5.7c0-2.5-2.1-4.6-4.6-4.6H19.6c-2.5,0-4.6,2.1-4.6,4.6v3.6H4   c-1.7,0-3,1.3-3,3v9.1c0,0,0,0,0,0s0,0,0,0v20.6c0,1.7,1.3,3,3,3h12.3l1.6,1.6c0.3,0.3,0.8,0.4,1.2,0.1l2-1.2   c0.2,0.1,0.4,0.2,0.7,0.3l0.5,2.3c0.1,0.5,0.5,0.8,1,0.8h3.4c0.5,0,0.9-0.3,1-0.8l0.5-2.3c0.2-0.1,0.4-0.2,0.7-0.3l2,1.2   c0.4,0.2,0.9,0.2,1.2-0.1l1.5-1.5H46C47.6,45.1,49,43.7,49,42.1z M17,5.7c0-1.4,1.2-2.6,2.6-2.6h10.7c1.4,0,2.6,1.2,2.6,2.6v3.6H17   V5.7z M31.5,41.5l1.1,1.8l0,0c0,0,0,0,0,0l-1.3,1.3l-1.8-1.1c-0.3-0.2-0.7-0.2-1,0c-0.4,0.2-0.9,0.4-1.4,0.6   c-0.3,0.1-0.6,0.4-0.7,0.7L26,46.9h-1.9l-0.5-2c-0.1-0.4-0.3-0.6-0.7-0.7c-0.5-0.1-0.9-0.3-1.4-0.6c-0.3-0.2-0.7-0.2-1,0l-1.8,1.1   l-1.3-1.3v0l1.1-1.8c0.2-0.3,0.2-0.7,0-1c-0.2-0.5-0.4-0.9-0.6-1.4c-0.1-0.3-0.4-0.6-0.7-0.7L15.2,38v-1.9l2-0.5   c0.3-0.1,0.6-0.3,0.7-0.7c0.2-0.5,0.4-1,0.6-1.4c0.2-0.3,0.2-0.7,0-1l-1.1-1.8l1.3-1.3l1.8,1.1c0.3,0.2,0.7,0.2,1,0   c0.4-0.2,0.9-0.4,1.4-0.6c0.3-0.1,0.6-0.4,0.7-0.7l0.5-2.1h1.8l0.5,2c0.1,0.4,0.3,0.6,0.7,0.7c0.5,0.1,0.9,0.3,1.4,0.6   c0.3,0.2,0.7,0.2,1,0l1.8-1.1l1.3,1.3l-1.1,1.8c-0.2,0.3-0.2,0.7,0,1c0.2,0.5,0.4,0.9,0.6,1.4c0.1,0.3,0.4,0.6,0.7,0.7l2.1,0.5V38   l-2,0.5c-0.3,0.1-0.6,0.3-0.7,0.7c-0.2,0.5-0.3,1-0.6,1.4C31.3,40.9,31.3,41.2,31.5,41.5z M47,42.1c0,0.6-0.4,1-1,1H34.8   c0,0,0-0.1-0.1-0.1l-1.2-2c0.1-0.2,0.2-0.5,0.3-0.7l2.2-0.5c0.5-0.1,0.8-0.5,0.8-1v-3.4c0-0.5-0.3-0.9-0.8-1l-2.3-0.6   c-0.1-0.2-0.2-0.5-0.3-0.7l1.2-2c0.2-0.4,0.2-0.9-0.1-1.2l-2.4-2.4c-0.3-0.3-0.8-0.4-1.2-0.1l-2,1.2c-0.2-0.1-0.4-0.2-0.7-0.3   L27.6,26c-0.1-0.5-0.5-0.8-1-0.8h-3.4c-0.5,0-0.9,0.3-1,0.8l-0.5,2.3c-0.2,0.1-0.4,0.2-0.7,0.3l-2-1.2c-0.4-0.2-0.9-0.2-1.2,0.1   l-2.4,2.4c-0.3,0.3-0.4,0.8-0.1,1.2l1.2,2c-0.1,0.2-0.2,0.4-0.3,0.7L14,34.4c-0.5,0.1-0.8,0.5-0.8,1v3.5c0,0.5,0.3,0.9,0.8,1   l2.3,0.5c0.1,0.2,0.2,0.5,0.3,0.7l-1.2,2c0,0,0,0.1,0,0.1H4c-0.6,0-1-0.4-1-1V22.5h5.9v0.8c0,1.7,1.3,3,3,3h2.3c1.7,0,3-1.3,3-3   v-0.8h15.5v0.8c0,1.7,1.3,3,3,3h2.3c1.6,0,2.9-1.2,3-2.8H47V42.1z M10.9,21.5v-2c0-0.6,0.4-1,1-1h2.3c0.6,0,1,0.4,1,1v2   c0,0,0,0,0,0s0,0,0,0v1.8c0,0.6-0.4,1-1,1h-2.3c-0.6,0-1-0.4-1-1V21.5C10.9,21.5,10.9,21.5,10.9,21.5   C10.9,21.5,10.9,21.5,10.9,21.5z M34.7,23.3v-3.8c0-0.6,0.4-1,1-1h2.3c0.6,0,1,0.4,1,1v3.8c0,0.6-0.4,1-1,1h-2.3   C35.2,24.3,34.7,23.8,34.7,23.3z M47,21.5h-5.9v-2c0-1.7-1.3-3-3-3h-2.3c-1.7,0-3,1.3-3,3v1H17.3v-1c0-1.7-1.3-3-3-3h-2.3   c-1.7,0-3,1.3-3,3v1H3v-8.2c0-0.6,0.4-1,1-1h42c0.6,0,1,0.4,1,1V21.5z"></path></g></svg></g></g></svg>
