<svg height='20px' width='20px'  fill="#A50030" xmlns="http://www.w3.org/2000/svg" xmlns:xlink="http://www.w3.org/1999/xlink" version="1.1" x="0px" y="0px" viewBox="0 0 32 32" enable-background="new 0 0 32 32" xml:space="preserve"><path d="M28.001,12v13.001c0,2.201-1.794,3-3,3H6.999c-2.201,0-3-1.794-3-3V6.999c0-2.201,1.794-3,3-3H19c0.553,0,1,0.448,1,1  s-0.447,1-1,1H6.999c-0.45,0.012-1,0.195-1,1v18.002c0.012,0.45,0.195,1,1,1h18.002c0.45-0.012,1-0.194,1-1V12c0-0.552,0.447-1,1-1  S28.001,11.448,28.001,12z M29,2h-6c-0.553,0-1,0.448-1,1s0.447,1,1,1h3.453L14.318,15.269c-0.404,0.376-0.428,1.009-0.052,1.414  c0.197,0.212,0.465,0.319,0.733,0.319c0.244,0,0.488-0.088,0.681-0.267L28,5.294V9c0,0.552,0.447,1,1,1s1-0.448,1-1V3  C30,2.448,29.553,2,29,2z"></path></svg>
