<svg xmlns="http://www.w3.org/2000/svg" xmlns:xlink="http://www.w3.org/1999/xlink" width="28" height="28" viewBox="0 0 100 100"><g><g transform="translate(50 50) scale(0.69 0.69) rotate(0) translate(-50 -50)" style="fill:#000000"><svg fill="#000000" xmlns="http://www.w3.org/2000/svg" data-name="Layer 1" viewBox="0 0 128 128" x="0px" y="0px"><title>miscellaneous 73 solid</title><path d="M15.28,128H81.49c8.42,0,15.27-7.63,15.27-17a18.06468,18.06468,0,0,0-3.22-10.44l-.00995-.01c0-.01-.01-.01-.01-.02-.03-.04-.07-.07-.1-.11l-.15-.18c-.05-.04-.11-.08-.16-.12a1.56425,1.56425,0,0,0-.15-.12,1.50932,1.50932,0,0,0-.18-.09.91607.91607,0,0,0-.17-.09,4.0968,4.0968,0,0,0-.38-.11,1.97536,1.97536,0,0,0-.24-.03c-.05,0-.1-.01-.15-.01H83.52V77.12c-.1.04-.28-.16-.49-.53-4.41,1.87-8.8,2.28-13.61,2.38-1.36.03-2.64.06-3.9.16a10.75978,10.75978,0,0,0-2.46.51c2.09-.05,5.46-.08,6.52-.1,1.64-.04,3.23-.11,4.79-.25a1.96373,1.96373,0,0,1,1,1.71,2.01883,2.01883,0,0,1-2.03,2H57.54a36.21713,36.21713,0,0,0-7.15,9.21A6.01878,6.01878,0,0,1,40.14,93H10.19a2.00039,2.00039,0,1,1,0-4H39.02a5.70161,5.70161,0,0,1,.62-2.24A41.995,41.995,0,0,1,41.87,83H10.19a2.00039,2.00039,0,1,1,0-4H44.8a45.20846,45.20846,0,0,1,3.31-3.63C47.08,73.96,47.04,73,46.81,73H10.19a2.00039,2.00039,0,1,1,0-4H47.54q.975-3.105,2.07-6H10.19a2.00039,2.00039,0,1,1,0-4H51.21c.88-2.08,1.81-4.09,2.77-6H10.19a2.00039,2.00039,0,1,1,0-4H56.14c1.19-2.11,2.44-4.11,3.72-6H10.19a2.00039,2.00039,0,1,1,0-4H62.75a81.09641,81.09641,0,0,1,7.03-8.01c-11.89-1.63-19.3-5.71-27.02-9.98C33.11,15.66,23.13,10.14,4.07,9.77V6A2.02749,2.02749,0,0,1,6.11,4h71.3a2.0275,2.0275,0,0,1,2.04,2V22.84c1.36-.97,2.72-1.86,4.07-2.7V6a6.061,6.061,0,0,0-6.11-6H6.11A6.061,6.061,0,0,0,0,6V111C0,120.37,6.85,128,15.28,128Zm13.78-24.33H90.73A14.304,14.304,0,0,1,92.69,111c0,7.17-5.03,13-11.2,13H25.1a17.79155,17.79155,0,0,0,5.46-13A18.44348,18.44348,0,0,0,29.06,103.67Z"></path><path d="M106.431,35.5l-.64758,1.291C88.4281,71.12988,79.61212,71.32031,69.4046,71.541c-1.43036.03125-2.91046.06348-4.4408.18457-13.43329,1.05957-21.6236,16.708-21.96576,17.373a1.983,1.983,0,0,0,.89966,2.68555,2.06851,2.06851,0,0,0,.91711.21484,2.04352,2.04352,0,0,0,1.81982-1.09668c.0741-.14258,7.51239-14.31055,18.65594-15.19043,1.41241-.11133,2.83185-.1416,4.20355-.17187,11.05-.23828,21.4873-.46387,39.93982-36.97168l.65552-1.30664c3.10645-6.2168,8.30566-16.623,16.65216-20.01367a1.99313,1.99313,0,0,0,1.23041-2.17676,2.02354,2.02354,0,0,0-1.88495-1.667c-.572-.03711-14.26886-.77051-30.46143,6.05566C80.68939,25.75488,60.81146,39.9502,50.93018,71.82617a1.9876,1.9876,0,0,0,1.10614,2.40234,2.05224,2.05224,0,0,0,2.57129-.76172c.13574-.21387,13.81128-21.38281,35.32245-24.48828A2.00506,2.00506,0,0,0,91.64893,46.709a2.03539,2.03539,0,0,0-2.31171-1.6875c-13.36066,1.92871-23.73633,9.959-30.28186,16.65527,8.1261-18.28223,20.87311-31.19629,38.00964-38.4707a75.01742,75.01742,0,0,1,21.55695-5.51074C112.75226,22.84961,108.95355,30.45117,106.431,35.5Z"></path></svg></g></g></svg>
