<svg xmlns="http://www.w3.org/2000/svg" xmlns:xlink="http://www.w3.org/1999/xlink" width="30" height="30" viewBox="0 0 100 100"><g transform="translate(50 50) scale(0.69 0.69) rotate(0) translate(-50 -50)" style="fill:#000000"><svg fill="#000000" xmlns="http://www.w3.org/2000/svg" xmlns:xlink="http://www.w3.org/1999/xlink" version="1.1" x="0px" y="0px" viewBox="0 0 60 60" style="enable-background:new 0 0 60 60;" xml:space="preserve"><path d="M48.4384766,53.0980225c-0.0249634-0.0115967-0.0501709-0.0195313-0.0762329-0.0290527  c-0.0366821-0.0116577-0.0680542-0.0333252-0.1066284-0.0406494c-0.0654297-0.0166016-0.1333008-0.0253906-0.2026367-0.0273438  C47.7785645,52.8154297,47.2702637,51.6044922,47.2702637,49.5c0-2.1474609,0.5288086-3.3642578,0.75-3.5  c0.5522461,0,1-0.4472656,1-1V6c0-0.5527344-0.4477539-1-1-1H16.4602051c-3.0327148,0-5.5,2.4677734-5.5,5.5v38.9036255  C10.9596558,49.4360352,10.9553223,49.4674683,10.9553223,49.5c0,3.0322266,2.4672852,5.5,5.5,5.5h0.0048828h31.5600586  c0.5522461,0,1.0244141-0.4423828,1.0244141-0.9951172C49.0446777,53.5878906,48.7955933,53.2461548,48.4384766,53.0980225z   M47.0202637,44H21.1867676V7h25.8334961V44z M16.4602051,7h2.7265625v37h-2.7314453  c-1.3261719,0-2.5442505,0.4719238-3.4951172,1.2565918V10.5C12.9602051,8.5703125,14.5305176,7,16.4602051,7z M16.4602051,53  c-1.9296875,0-3.5-1.5703125-3.5-3.5v-0.0482788C12.9867554,47.5447388,14.5421753,46,16.4553223,46h29.3334961  c-0.3647461,1.0078125-0.5185547,2.2734375-0.5185547,3.5s0.1538086,2.4921875,0.5185547,3.5H16.4602051z"></path></svg></g></svg>
