<?xml version="1.0" encoding="UTF-8"?><svg id="Layer_1" xmlns="http://www.w3.org/2000/svg" width="30" height="30" viewBox="0 0 14.9 13.25"><defs><style>.cls-1{fill:#d4e9f2;}</style></defs><path class="cls-1" d="M3.1,0C2.1,0,1.22,.25,.26,.65,.1,.71,0,.86,0,1.03V9.51c0,.23,.19,.41,.41,.41,.05,0,.1,0,.14-.03,.99-.36,1.68-.59,2.55-.59,1.38,0,2.23,.45,3.1,.97,.13,.08,.3,.08,.43,0,.86-.51,1.69-.95,3.03-.97,.34,.96,1.26,1.65,2.34,1.65,.29,0,.57-.05,.83-.15l1.29,2.22c.1,.2,.35,.28,.56,.18s.28-.35,.18-.56c0-.02-.02-.03-.03-.04l-1.29-2.2c.57-.46,.93-1.15,.93-1.93,0-1.08-.69-2-1.65-2.34V1.03c0-.17-.1-.32-.26-.39-.96-.4-1.84-.65-2.84-.65-1.24,0-2.54,.52-3.31,.97-.77-.45-2.07-.97-3.31-.97h0Zm0,.83c.97,0,2.27,.5,2.9,.85v7.54c-.76-.4-1.67-.74-2.9-.74-.82,0-1.52,.2-2.28,.47V1.32c.8-.31,1.5-.5,2.28-.5Zm6.62,0c.78,0,1.48,.19,2.28,.5V5.99c-1.37,0-2.48,1.12-2.48,2.48,0,0,0,0,0,0-1.12,.04-1.97,.36-2.69,.74V1.68c.63-.36,1.92-.85,2.9-.85h0Zm2.28,5.99c.92,0,1.65,.74,1.65,1.65s-.74,1.65-1.65,1.65-1.65-.74-1.65-1.65,.74-1.65,1.65-1.65Z"/></svg>
