<svg xmlns="http://www.w3.org/2000/svg" xmlns:xlink="http://www.w3.org/1999/xlink" width="30" height="30" viewBox="0 0 100 100"><g><g transform="translate(50 50) scale(0.69 0.69) rotate(0) translate(-50 -50)" style="fill:#000000"><svg fill="#000000" xmlns="http://www.w3.org/2000/svg" xmlns:xlink="http://www.w3.org/1999/xlink" viewBox="0 0 100 100" version="1.1" x="0px" y="0px"><title>i7 copy</title><desc>Created with Sketch.</desc><g stroke="none" stroke-width="1" fill="none" fill-rule="evenodd"><path d="M89.0797264,86.6658269 L52.9601368,86.6658269 L52.9601368,72.6999013 L52.9601368,27.0249901 L89.0797264,27.0249901 L89.0797264,86.6658269 Z M22.5003289,13.3787594 C39.1007762,10.5311078 45.7847652,22.1230036 47.0398632,24.7042429 L47.0398632,72.6999013 L47.0398632,80.4673004 C43.0614393,76.5066373 36.7977898,72.5696553 27.5976845,72.5696553 C25.9932904,72.5696553 24.2882515,72.6939811 22.5003289,72.9544731 L22.5003289,24.0648533 L22.5003289,13.3787594 Z M51.7938429,21.1047165 C48.9698724,16.1553677 39.4086304,3.17812788 18.8534403,8.09195501 C17.5213788,8.40572951 16.5800553,9.59570452 16.5800553,10.969208 L16.5800553,21.1047165 L7.96013682,21.1047165 C6.3261413,21.1047165 5,22.4249375 5,24.0648533 L5,89.6259637 C5,91.2599592 6.3261413,92.5861005 7.96013682,92.5861005 L92.0398632,92.5861005 C93.6738587,92.5861005 95,91.2599592 95,89.6259637 L95,24.0648533 C95,22.4249375 93.6738587,21.1047165 92.0398632,21.1047165 L51.7938429,21.1047165 Z" fill="#000000"></path></g></svg></g></g></svg>
