<svg xmlns="http://www.w3.org/2000/svg" xmlns:xlink="http://www.w3.org/1999/xlink" width="30" height="30" viewBox="0 0 100 100"><g><g transform="translate(50 50) scale(0.69 0.69) rotate(0) translate(-50 -50)" style="fill:#000000"><svg fill="#000000" xmlns="http://www.w3.org/2000/svg" xmlns:xlink="http://www.w3.org/1999/xlink" version="1.1" x="0px" y="0px" viewBox="0 0 24 24" enable-background="new 0 0 24 24" xml:space="preserve"><g><path d="M12,2C6.49,2,2,6.49,2,12v8c0,1.1,0.9,2,2,2h3c0.55,0,1-0.45,1-1v-6c0-0.55-0.45-1-1-1H4v-2c0-4.41,3.59-8,8-8s8,3.59,8,8   v2h-3c-0.55,0-1,0.45-1,1v6c0,0.55,0.45,1,1,1h3c1.1,0,2-0.9,2-2v-8C22,6.49,17.51,2,12,2z"></path></g></svg></g></g></svg>
