<?xml version="1.0" encoding="utf-8"?>
<!-- Generator: Adobe Illustrator 27.0.0, SVG Export Plug-In . SVG Version: 6.00 Build 0)  -->
<svg version="1.1" id="Layer_1" xmlns="http://www.w3.org/2000/svg" xmlns:xlink="http://www.w3.org/1999/xlink" x="0px" y="0px"
	 width="30" height="30" viewBox="0 0 30 30" style="enable-background:new 0 0 30 30;" xml:space="preserve">
<style type="text/css">
	.st0{fill:#D4E9F2;}
</style>
<g id="Layer_2_00000052094232977000477890000014662461261447376530_">
</g>
<g id="Layer_1_00000162343455524397222200000006088314702615490220_">
	<g>
		<g>
			<g>
				<path class="st0" d="M26.4,6.9L26.4,6.9L16.3,1c-0.8-0.4-1.8-0.4-2.6,0L3.6,6.9C2.8,7.2,2.3,8.2,2.3,9.1v11.7
					c0,0.9,0.5,1.8,1.3,2.2l10.1,5.9c0.4,0.2,0.8,0.4,1.3,0.4s0.9-0.1,1.3-0.4L26.4,23c0.8-0.5,1.3-1.4,1.3-2.3V9.2
					C27.7,8.2,27.2,7.4,26.4,6.9z M14.7,2.9c0.1-0.1,0.2-0.1,0.3-0.1c0.1,0,0.2,0,0.3,0.1l9.3,5.4L15,13.8L5.4,8.2L14.7,2.9z
					 M4.6,21.2c-0.2-0.1-0.3-0.3-0.3-0.5V10l9.6,5.6v11.1L4.6,21.2z M25.3,21.2L16,26.6V15.6l9.6-5.6v10.8
					C25.6,21,25.5,21.1,25.3,21.2z"/>
			</g>
		</g>
	</g>
</g>
</svg>
