<?xml version="1.0" encoding="utf-8"?>
<!-- Generator: Adobe Illustrator 27.0.0, SVG Export Plug-In . SVG Version: 6.00 Build 0)  -->
<svg version="1.1" id="Layer_1" xmlns="http://www.w3.org/2000/svg" xmlns:xlink="http://www.w3.org/1999/xlink" x="0px" y="0px"
	 width="30" height="30" viewBox="0 0 30 30" style="enable-background:new 0 0 30 30;" xml:space="preserve">
<style type="text/css">
	.st0{fill:#D4E9F2;}
</style>
<g>
	<g transform="translate(50 50) scale(0.69 0.69) rotate(0) translate(-50 -50)">
		<path class="st0" d="M9.5-9.5C9.5-9.6,9.5-9.6,9.5-9.5c0-0.1,0-0.1-0.1-0.1c0,0,0,0,0-0.1c0,0,0,0,0-0.1c0,0-0.1-0.1-0.1-0.1
			l-4.2-4.2c0,0-0.1-0.1-0.1-0.1l0,0c0,0,0,0-0.1,0c0,0,0,0-0.1,0c0,0,0,0-0.1,0c0,0-0.1,0-0.1,0h-15c-0.3,0-0.6,0.3-0.6,0.6v25.8
			c0,0.3,0.3,0.6,0.6,0.6H8.9c0.3,0,0.6-0.3,0.6-0.6V-9.4C9.5-9.5,9.5-9.5,9.5-9.5z M5.3-12.2L7.4-10H5.3V-12.2z M8.3,11.6h-18V-13
			H4.1v3.6c0,0.3,0.3,0.6,0.6,0.6h3.6V11.6z M5.9,8.6c0,0.3-0.3,0.6-0.6,0.6h-12c-0.3,0-0.6-0.3-0.6-0.6C-7.3,8.2-7.1,8-6.7,8h12
			C5.6,8,5.9,8.2,5.9,8.6z M5.9,5c0,0.3-0.3,0.6-0.6,0.6h-12c-0.3,0-0.6-0.3-0.6-0.6s0.3-0.6,0.6-0.6h12C5.6,4.4,5.9,4.6,5.9,5z
			 M5.9,1.4C5.9,1.7,5.6,2,5.3,2h-12c-0.3,0-0.6-0.3-0.6-0.6s0.3-0.6,0.6-0.6h12C5.6,0.8,5.9,1,5.9,1.4z M5.9-2.2
			c0,0.3-0.3,0.6-0.6,0.6h-12c-0.3,0-0.6-0.3-0.6-0.6s0.3-0.6,0.6-0.6h12C5.6-2.8,5.9-2.6,5.9-2.2z M-6.7-6.4h12
			c0.3,0,0.6,0.3,0.6,0.6c0,0.3-0.3,0.6-0.6,0.6h-12c-0.3,0-0.6-0.3-0.6-0.6C-7.3-6.2-7.1-6.4-6.7-6.4z"/>
	</g>
</g>
</svg>
