<?xml version="1.0" encoding="utf-8"?>
<!-- Generator: Adobe Illustrator 27.0.0, SVG Export Plug-In . SVG Version: 6.00 Build 0)  -->
<svg version="1.1"
	 id="Layer_1" xmlns:svg="http://www.w3.org/2000/svg" xmlns:inkscape="http://www.inkscape.org/namespaces/inkscape" xmlns:sodipodi="http://sodipodi.sourceforge.net/DTD/sodipodi-0.dtd" xmlns:rdf="http://www.w3.org/1999/02/22-rdf-syntax-ns#" xmlns:cc="http://creativecommons.org/ns#" xmlns:dc="http://purl.org/dc/elements/1.1/"
	 xmlns="http://www.w3.org/2000/svg" xmlns:xlink="http://www.w3.org/1999/xlink" x="0px" y="0px" width="30" height="30" viewBox="0 0 30 30"
	 style="enable-background:new 0 0 30 30;" xml:space="preserve">
<style type="text/css">
	.st0{fill:#D4E9F2;}
</style>
<g>
	<g transform="translate(50 50) scale(0.69 0.69) rotate(0) translate(-50 -50)">
		<g transform="translate(0,-952.36218)">
			<path class="st0" d="M-0.7,938.7c-7.1,0-12.9,5.8-12.9,12.9c0,7.1,5.8,12.9,12.9,12.9s12.9-5.8,12.9-12.9
				C12.2,944.5,6.4,938.7-0.7,938.7z M-1.6,940.7v4h-3.1C-4,942.7-2.9,941.2-1.6,940.7z M0.2,940.7c1.3,0.5,2.4,2,3.1,4H0.2V940.7z
				 M-4.9,941.3c-0.7,0.9-1.2,2.1-1.7,3.4h-2.9C-8.2,943.2-6.7,942.1-4.9,941.3z M3.4,941.3c1.8,0.7,3.4,1.9,4.5,3.4H5.1
				C4.7,943.4,4.1,942.3,3.4,941.3z M-10.6,946.5h3.5c-0.3,1.3-0.5,2.7-0.5,4.2h-4.2C-11.7,949.2-11.2,947.8-10.6,946.5z
				 M-5.3,946.5h3.6v4.2h-4.2C-5.8,949.3-5.6,947.8-5.3,946.5z M0.2,946.5h3.6c0.3,1.3,0.5,2.7,0.5,4.2H0.2V946.5z M5.6,946.5h3.5
				c0.7,1.3,1.1,2.7,1.2,4.2H6.2C6.1,949.2,5.9,947.8,5.6,946.5z M-11.8,952.5h4.2c0.1,1.5,0.2,2.9,0.5,4.2h-3.5
				C-11.2,955.5-11.7,954-11.8,952.5z M-5.8,952.5h4.2v4.2h-3.6C-5.6,955.4-5.8,954-5.8,952.5z M0.2,952.5h4.2
				c-0.1,1.5-0.2,2.9-0.5,4.2H0.2V952.5z M6.2,952.5h4.2c-0.1,1.5-0.5,2.9-1.2,4.2H5.6C5.9,955.4,6.1,954,6.2,952.5z M-9.4,958.5
				h2.9c0.4,1.3,1,2.5,1.7,3.4C-6.7,961.2-8.2,960-9.4,958.5L-9.4,958.5z M-4.8,958.5h3.1v4C-3,962.1-4,960.6-4.8,958.5z M0.2,958.5
				h3.1c-0.7,2.1-1.8,3.6-3.1,4V958.5z M5.1,958.5H8c-1.2,1.5-2.7,2.7-4.5,3.4C4.1,961,4.7,959.8,5.1,958.5z"/>
		</g>
	</g>
</g>
</svg>
