<svg height='20px' width='20px'  fill="#1A1A1A" xmlns="http://www.w3.org/2000/svg" data-name="Layer 1" viewBox="0 0 100 100" x="0px" y="0px"><title>chat outline</title><path d="M74.77234,54.36835V11.76263A5.89156,5.89156,0,0,0,68.939,5.82806H10.83337A5.89147,5.89147,0,0,0,5,11.76263V54.36835a5.89132,5.89132,0,0,0,5.83337,5.93408h8.161l2.33936,27.44263L38.674,60.30243H68.939A5.8914,5.8914,0,0,0,74.77234,54.36835ZM36.44409,56.25751,24.3418,75.41077,22.70947,56.25751H10.83337a1.84258,1.84258,0,0,1-1.78845-1.88916V11.76263A1.843,1.843,0,0,1,10.83337,9.873H68.939a1.84294,1.84294,0,0,1,1.78833,1.88964V54.36835A1.84247,1.84247,0,0,1,68.939,56.25751Z"></path><path d="M90.0564,27.29248H78.81726v4.045H90.0564a.94034.94034,0,0,1,.89868.97565V67.83929a.94039.94039,0,0,1-.89868.97571H80.5188L79.29126,83.22015,68.54,68.815H45.51758a.94038.94038,0,0,1-.89868-.97571V64.34741H40.90283l-.32886.52039v2.97149a4.98862,4.98862,0,0,0,4.94361,5.02063h20.994l15.90612,21.312,1.81617-21.312H90.0564A4.98862,4.98862,0,0,0,95,67.83929V32.31311A4.98866,4.98866,0,0,0,90.0564,27.29248Z"></path></svg>
