<svg xmlns="http://www.w3.org/2000/svg" xmlns:xlink="http://www.w3.org/1999/xlink" width="30" height="30" viewBox="0 0 100 100"><g><g transform="translate(50 50) scale(0.69 0.69) rotate(0) translate(-50 -50)" style="fill:#000000"><svg fill="#000000" xmlns:x="http://ns.adobe.com/Extensibility/1.0/" xmlns:i="http://ns.adobe.com/AdobeIllustrator/10.0/" xmlns:graph="http://ns.adobe.com/Graphs/1.0/" xmlns="http://www.w3.org/2000/svg" xmlns:xlink="http://www.w3.org/1999/xlink" version="1.1" x="0px" y="0px" viewBox="0 0 100 100" style="enable-background:new 0 0 100 100;" xml:space="preserve"><g><g i:extraneous="self"><path d="M88,23.1L88,23.1L54.3,3.7c-2.7-1.5-6-1.5-8.6,0L12,23.1c-2.7,1.5-4.3,4.4-4.3,7.5v38.9c0,3.1,1.7,5.9,4.3,7.5l33.7,19.4    c1.3,0.8,2.8,1.2,4.3,1.2c1.5,0,3-0.4,4.3-1.2L88,76.9c2.7-1.5,4.3-4.4,4.3-7.5V30.6C92.3,27.5,90.6,24.6,88,23.1z M49.1,9.6    c0.3-0.2,0.6-0.2,0.9-0.2c0.3,0,0.6,0.1,0.9,0.2l31.1,18L50,46L18,27.6L49.1,9.6z M15.5,71c-0.5-0.3-0.9-0.9-0.9-1.5V33.5l32,18.5    v36.9L15.5,71z M84.5,71l-31.1,18V52l32-18.5v35.9C85.4,70.1,85.1,70.6,84.5,71z"></path></g></g></svg></g></g></svg>
