<?xml version="1.0" encoding="utf-8"?>
<!-- Generator: Adobe Illustrator 27.0.0, SVG Export Plug-In . SVG Version: 6.00 Build 0)  -->
<svg version="1.1" id="Layer_1" xmlns="http://www.w3.org/2000/svg" xmlns:xlink="http://www.w3.org/1999/xlink" x="0px" y="0px"
	 width="30" height="30" viewBox="0 0 30 30" style="enable-background:new 0 0 30 30;" xml:space="preserve">
<style type="text/css">
	.st0{fill:#D4E9F2;}
</style>
<g>
	<g transform="translate(50 50) scale(0.69 0.69) rotate(0) translate(-50 -50)">
		<path class="st0" d="M7.8-8.2V5.6H-9.9V-8.2L7.8-8.2 M7.9-9.6H-9.9c-0.8,0-1.4,0.6-1.4,1.4V5.6c0,0.8,0.6,1.4,1.4,1.4H7.9
			c0.8,0,1.4-0.6,1.4-1.4V-8.2C9.3-9,8.7-9.6,7.9-9.6z"/>
		<path class="st0" d="M-4.3-6c-0.8,0-1.5,0.7-1.5,1.5s0.7,1.5,1.5,1.5s1.5-0.7,1.5-1.5S-3.5-6-4.3-6z M-10.3,3.1l4.8-4l3.5,3.3
			l4.7-6l5.5,6.8v2.3h-18.6V3.1z"/>
	</g>
</g>
</svg>
