<svg xmlns="http://www.w3.org/2000/svg" xmlns:xlink="http://www.w3.org/1999/xlink" width="30" height="30" viewBox="0 0 100 100"><g><g transform="translate(50 50) scale(0.69 0.69) rotate(0) translate(-50 -50)" style="fill:#000000"><svg fill="#000000" xmlns:dc="http://purl.org/dc/elements/1.1/" xmlns:cc="http://creativecommons.org/ns#" xmlns:rdf="http://www.w3.org/1999/02/22-rdf-syntax-ns#" xmlns:svg="http://www.w3.org/2000/svg" xmlns="http://www.w3.org/2000/svg" xmlns:sodipodi="http://sodipodi.sourceforge.net/DTD/sodipodi-0.dtd" xmlns:inkscape="http://www.inkscape.org/namespaces/inkscape" version="1.1" x="0px" y="0px" viewBox="0 0 100 100"><g transform="translate(0,-952.36218)"><path style="text-indent:0;text-transform:none;direction:ltr;block-progression:tb;baseline-shift:baseline;color:#000000;enable-background:accumulate;" d="m 50,959.36215 c -23.71267,0 -43.0000002,19.28734 -43.0000002,43.00005 0,23.7127 19.2873302,43 43.0000002,43 23.71266,0 43,-19.2873 43,-43 0,-23.71271 -19.28734,-43.00005 -43,-43.00005 z m -3,6.5 0,13.46875 -10.40625,0 C 39.03058,972.46382 42.58451,967.43467 47,965.86215 z m 6,0 c 4.41549,1.57252 7.96942,6.60167 10.40625,13.46875 l -10.40625,0 0,-13.46875 z m -16.84375,2.1875 c -2.19812,3.10842 -4.07807,6.92295 -5.5625,11.28125 l -9.5625,0 c 3.9487,-4.96621 9.14457,-8.8728 15.125,-11.28125 z m 27.6875,0 c 5.98043,2.40845 11.17631,6.31504 15.125,11.28125 l -9.5625,0 c -1.48443,-4.3583 -3.36438,-8.17283 -5.5625,-11.28125 z m -46.6875,17.28125 11.71875,0 c -1.00559,4.34015 -1.6263,9.06619 -1.8125,14 l -13.9375,0 c 0.40577,-5.01733 1.83046,-9.7527 4.03125,-14 z m 17.6875,0 12.15625,0 0,14 -13.9375,0 c 0.18021,-4.91204 0.78405,-9.67995 1.78125,-14 z m 18.15625,0 12.15625,0 c 0.9972,4.32005 1.60104,9.08796 1.78125,14 l -13.9375,0 0,-14 z m 18.125,0 11.71875,0 c 2.20079,4.2473 3.62548,8.98267 4.03125,14 l -13.9375,0 c -0.1862,-4.93381 -0.80691,-9.65985 -1.8125,-14 z m -58,20 13.9375,0 c 0.18086,4.9446 0.80855,9.6522 1.8125,14 l -11.75,0 c -2.19139,-4.2489 -3.60278,-8.9839 -4,-14 z m 19.9375,0 13.9375,0 0,14 -12.15625,0 c -0.99568,-4.3228 -1.60314,-9.0862 -1.78125,-14 z m 19.9375,0 13.9375,0 c -0.17811,4.9138 -0.78557,9.6772 -1.78125,14 l -12.15625,0 0,-14 z m 19.9375,0 13.9375,0 c -0.39722,5.0161 -1.80861,9.7511 -4,14 l -11.75,0 c 1.00395,-4.3478 1.63164,-9.0554 1.8125,-14 z m -51.9375,20 9.5625,0 c 1.48776,4.3812 3.38461,8.2244 5.59375,11.3438 C 30.15897,1034.2594 24.95274,1030.317 21,1025.3309 z m 15.5625,0 10.4375,0 0,13.5 c -4.42326,-1.5753 -8.00042,-6.6143 -10.4375,-13.5 z m 16.4375,0 10.4375,0 c -2.43708,6.8857 -6.01424,11.9247 -10.4375,13.5 l 0,-13.5 z m 16.4375,0 9.5625,0 c -3.95274,4.9861 -9.15898,8.9285 -15.15625,11.3438 2.20914,-3.1194 4.10599,-6.9626 5.59375,-11.3438 z" fill="#000000" fill-opacity="1" stroke="none" marker="none" visibility="visible" display="inline" overflow="visible"></path></g></svg></g></g></svg>
