<?xml version="1.0" encoding="utf-8"?>
<!-- Generator: Adobe Illustrator 27.0.0, SVG Export Plug-In . SVG Version: 6.00 Build 0)  -->
<svg version="1.1" id="Layer_1" xmlns="http://www.w3.org/2000/svg" xmlns:xlink="http://www.w3.org/1999/xlink" x="0px" y="0px"
	 width="30" height="30" viewBox="0 0 30 30" style="enable-background:new 0 0 30 30;" xml:space="preserve">
<style type="text/css">
	.st0{fill:#D4E9F2;}
</style>
<g>
	<g transform="translate(50 50) scale(0.69 0.69) rotate(0) translate(-50 -50)">
		<path class="st0" d="M11.6,7.6H8.1V-9.6c0-1.4-1.1-2.6-2.5-2.7c-0.1,0-0.2,0-0.2,0H-11c-0.1,0-0.1,0-0.2,0
			c-1.3,0.1-2.4,1.3-2.4,2.7c0,0.3,0.3,0.6,0.6,0.6h3.5V8.2c0,1.5,1.2,2.7,2.7,2.7v0H9.6v0c1.5,0,2.7-1.2,2.7-2.7
			C12.2,7.9,12,7.6,11.6,7.6z M-12.3-10.2c0.2-0.5,0.8-0.9,1.4-0.9c0.6,0,1.1,0.4,1.3,0.9H-12.3z M-8.3,8.2V-9.6
			c0-0.6-0.2-1.1-0.4-1.5h14c0.1,0,0.1,0,0.2,0c0.8,0,1.5,0.7,1.5,1.5V7.6H-4.8c-0.3,0-0.6,0.3-0.6,0.6C-5.4,9-6,9.7-6.8,9.7
			S-8.3,9-8.3,8.2z M9.6,9.7L9.6,9.7l-14.2,0c0.2-0.3,0.3-0.6,0.4-0.9h15.2C10.7,9.3,10.2,9.7,9.6,9.7z M-6-6.5
			c0-0.3,0.3-0.6,0.6-0.6h7.6c0.3,0,0.6,0.3,0.6,0.6c0,0.3-0.3,0.6-0.6,0.6h-7.6C-5.8-5.9-6-6.1-6-6.5z M-6-3.3
			c0-0.3,0.3-0.6,0.6-0.6h6.3c0.3,0,0.6,0.3,0.6,0.6S1.2-2.7,0.9-2.7h-6.3C-5.8-2.7-6-2.9-6-3.3z M-6-0.1c0-0.3,0.3-0.6,0.6-0.6h10
			c0.3,0,0.6,0.3,0.6,0.6S4.9,0.5,4.6,0.5h-10C-5.8,0.5-6,0.2-6-0.1z M-6,3.1c0-0.3,0.3-0.6,0.6-0.6H3c0.3,0,0.6,0.3,0.6,0.6
			S3.3,3.7,3,3.7h-8.4C-5.8,3.7-6,3.4-6,3.1z"/>
	</g>
</g>
</svg>
