<?xml version="1.0" encoding="utf-8"?>
<!-- Generator: Adobe Illustrator 27.0.0, SVG Export Plug-In . SVG Version: 6.00 Build 0)  -->
<svg version="1.1" id="Layer_1" xmlns="http://www.w3.org/2000/svg" xmlns:xlink="http://www.w3.org/1999/xlink" x="0px" y="0px"
	 width="30" height="30" viewBox="0 0 20 20" style="enable-background:new 0 0 20 20;" xml:space="preserve">
<style type="text/css">
	.st0{fill:#D4E9F2;}
</style>
<g>
	<g>
		<path class="st0" d="M11.3,9.1c0-1.9,1.5-3.4,3.4-3.4V5.1V1.4H3.8C2.8,1.4,2,2.2,2,3.2v13.5c0-1,0.8-1.8,1.8-1.8h10.8v-2.5
			C12.8,12.5,11.3,10.9,11.3,9.1z"/>
	</g>
	<g>
		<path class="st0" d="M14.6,19H3.8c-1.2,0-2.3-1-2.3-2.3s1-2.3,2.3-2.3h10.8c0.2,0,0.4,0.2,0.4,0.4v3.7C15.1,18.8,14.9,19,14.6,19z
			 M3.8,15.3c-0.8,0-1.4,0.6-1.4,1.4c0,0.8,0.6,1.4,1.4,1.4h10.4v-2.8H3.8z"/>
	</g>
	<g>
		<path class="st0" d="M2,17.2c-0.2,0-0.4-0.2-0.4-0.4V3.3C1.6,2,2.6,1,3.8,1h10.8c0.2,0,0.4,0.2,0.4,0.4v4.3c0,0.2-0.2,0.4-0.4,0.4
			c-1.6,0-3,1.3-3,3s1.3,3,3,3c0.2,0,0.4,0.2,0.4,0.4v2.5c0,0.2-0.2,0.4-0.4,0.4H3.8c-0.8,0-1.4,0.6-1.4,1.4C2.4,17,2.2,17.2,2,17.2
			z M3.8,1.8C3,1.8,2.4,2.5,2.4,3.2V15c0.4-0.3,0.9-0.5,1.4-0.5h10.4v-1.6c-1.9-0.2-3.4-1.8-3.4-3.8s1.5-3.6,3.4-3.8V1.8H3.8z"/>
	</g>
	<g>
		<path class="st0" d="M14.6,12.9c-2.1,0-3.8-1.7-3.8-3.8s1.7-3.8,3.8-3.8s3.8,1.7,3.8,3.8S16.7,12.9,14.6,12.9z M14.6,6.1
			c-1.6,0-3,1.3-3,3s1.3,3,3,3s3-1.3,3-3S16.3,6.1,14.6,6.1z"/>
	</g>
	<g>
		<g>
			<path class="st0" d="M14.6,11.1c-0.2,0-0.4-0.2-0.4-0.4V8.9c0-0.2,0.2-0.4,0.4-0.4c0.2,0,0.4,0.2,0.4,0.4v1.7
				C15.1,10.9,14.9,11.1,14.6,11.1z"/>
		</g>
		<g>
			<circle class="st0" cx="14.6" cy="7.7" r="0.4"/>
		</g>
	</g>
</g>
</svg>
