<?xml version="1.0" encoding="utf-8"?>
<!-- Generator: Adobe Illustrator 27.0.0, SVG Export Plug-In . SVG Version: 6.00 Build 0)  -->
<svg version="1.1" id="Layer_1" xmlns="http://www.w3.org/2000/svg" xmlns:xlink="http://www.w3.org/1999/xlink" x="0px" y="0px"
	 width="30" height="30" viewBox="0 0 30 30" style="enable-background:new 0 0 30 30;" xml:space="preserve">
<style type="text/css">
	.st0{fill:#D4E9F2;}
</style>
<g>
	<g transform="translate(50 50) scale(0.69 0.69) rotate(0) translate(-50 -50)">
		<g>
			<path class="st0" d="M13.7-7.1l-14.1-6.7c-0.2-0.1-0.5-0.1-0.7,0l-14.1,6.7c-0.3,0.1-0.5,0.4-0.5,0.7c0,0.3,0.2,0.6,0.5,0.7
				l14.1,6.7c0.1,0.1,0.2,0.1,0.4,0.1c0.1,0,0.2,0,0.4-0.1l14.1-6.7c0.3-0.1,0.5-0.4,0.5-0.7C14.2-6.7,14-7,13.7-7.1z M-0.7-0.6
				l-12.2-5.8l12.2-5.8l12.2,5.8L-0.7-0.6z"/>
			<path class="st0" d="M13-1.5L-0.7,5l-13.7-6.5c-0.4-0.2-0.9,0-1.1,0.4c-0.2,0.4,0,0.9,0.4,1.1l14.1,6.7c0.1,0.1,0.2,0.1,0.4,0.1
				c0.1,0,0.2,0,0.4-0.1L13.7,0c0.4-0.2,0.6-0.7,0.4-1.1C13.9-1.5,13.4-1.7,13-1.5z"/>
			<path class="st0" d="M13,4.2l-13.7,6.5l-13.7-6.5c-0.4-0.2-0.9,0-1.1,0.4c-0.2,0.4,0,0.9,0.4,1.1l14.1,6.7
				c0.1,0.1,0.2,0.1,0.4,0.1c0.1,0,0.2,0,0.4-0.1l14.1-6.7c0.4-0.2,0.6-0.7,0.4-1.1C13.9,4.1,13.4,4,13,4.2z"/>
		</g>
	</g>
</g>
</svg>
