<?xml version="1.0" encoding="utf-8"?>
<!-- Generator: Adobe Illustrator 27.0.0, SVG Export Plug-In . SVG Version: 6.00 Build 0)  -->
<svg version="1.1" id="Layer_1" xmlns="http://www.w3.org/2000/svg" xmlns:xlink="http://www.w3.org/1999/xlink" x="0px" y="0px"
	 width="30" height="30" viewBox="0 0 28 28" style="enable-background:new 0 0 28 28;" xml:space="preserve">
<style type="text/css">
	.st0{fill:#D4E9F2;}
</style>
<g>
	<g transform="translate(50 50) scale(0.69 0.69) rotate(0) translate(-50 -50)">
		<path class="st0" d="M-12.8,11.8H1.7c1.8,0,3.3-1.7,3.3-3.7c0-0.8-0.2-1.6-0.7-2.3l0,0c0,0,0,0,0,0c0,0,0,0,0,0l0,0c0,0,0,0,0,0
			c0,0,0,0,0,0c0,0,0,0,0,0c0,0,0,0,0,0c0,0-0.1,0-0.1,0c0,0,0,0-0.1,0c0,0,0,0,0,0H2.1V0.7c0,0-0.1,0-0.1-0.1C1,1,0.1,1.1-1,1.1
			c-0.3,0-0.6,0-0.9,0c-0.2,0-0.4,0.1-0.5,0.1c0.5,0,1.2,0,1.4,0c0.4,0,0.7,0,1-0.1c0.1,0.1,0.2,0.2,0.2,0.4C0.3,1.8,0.1,2-0.1,2
			h-3.5c-0.6,0.6-1.2,1.3-1.6,2c-0.3,0.6-1.1,0.9-1.8,0.6c-0.2-0.1-0.3-0.2-0.5-0.4h-6.6c-0.2,0-0.4-0.2-0.4-0.4s0.2-0.4,0.4-0.4
			c0,0,0,0,0,0h6.3c0-0.2,0.1-0.3,0.1-0.5C-7.4,2.5-7.2,2.2-7,2h-6.9c-0.2,0-0.4-0.2-0.4-0.4s0.2-0.4,0.4-0.4c0,0,0,0,0,0h7.6
			c0.2-0.3,0.5-0.5,0.7-0.8C-5.9,0-5.9-0.2-5.9-0.2h-8c-0.2,0-0.4-0.2-0.4-0.4s0.2-0.4,0.4-0.4c0,0,0,0,0,0h8.2
			C-5.6-1.5-5.5-2-5.3-2.4h-8.6c-0.2,0-0.4-0.2-0.4-0.4c0-0.2,0.2-0.4,0.4-0.4c0,0,0,0,0,0h9c0.2-0.5,0.4-0.9,0.6-1.3h-9.6
			c-0.2,0-0.4-0.2-0.4-0.4c0-0.2,0.2-0.4,0.4-0.4c0,0,0,0,0,0h10.1c0.3-0.5,0.5-0.9,0.8-1.3h-10.9c-0.2,0-0.4-0.2-0.4-0.4
			c0-0.2,0.2-0.4,0.4-0.4c0,0,0,0,0,0h11.5c0.5-0.6,1-1.2,1.5-1.8c-2.6-0.4-4.2-1.2-5.9-2.2c-2.1-1.2-4.3-2.4-8.5-2.5v-0.8
			c0-0.2,0.2-0.4,0.4-0.4H0.8c0.2,0,0.4,0.2,0.4,0.4v3.7c0.3-0.2,0.6-0.4,0.9-0.6v-3.1c0-0.7-0.6-1.3-1.3-1.3h-15.6
			c-0.7,0-1.3,0.6-1.3,1.3v23C-16.2,10.2-14.7,11.8-12.8,11.8z M-9.8,6.5H3.7C4,7,4.1,7.5,4.1,8.1C4.1,9.7,3,11,1.7,11h-12.3
			c0.8-0.7,1.2-1.8,1.2-2.8C-9.5,7.6-9.6,7-9.8,6.5z"/>
		<path class="st0" d="M7.1-8.4L7-8.1C3.2-0.6,1.2-0.6-1-0.5c-0.3,0-0.6,0-1,0c-2.9,0.2-4.7,3.7-4.8,3.8c-0.1,0.2,0,0.5,0.2,0.6
			c0,0,0,0,0,0c0.1,0,0.1,0,0.2,0C-6.2,4-6.1,3.9-6,3.7c0,0,1.6-3.1,4.1-3.3c0.3,0,0.6,0,0.9,0c2.4-0.1,4.7-0.1,8.7-8.1L7.9-8
			c0.7-1.4,1.8-3.6,3.6-4.4c0.2-0.1,0.3-0.3,0.3-0.5c0-0.2-0.2-0.4-0.4-0.4c-0.1,0-3.1-0.2-6.7,1.3C1.5-10.5-2.9-7.4-5-0.5
			C-5.1-0.3-5,0-4.8,0.1c0.2,0.1,0.4,0,0.6-0.2c0,0,3-4.7,7.7-5.4c0.2,0,0.4-0.3,0.4-0.5c0,0,0,0,0,0c0-0.2-0.3-0.4-0.5-0.4
			C0.4-5.9-1.8-4.1-3.3-2.7c1.8-4,4.6-6.8,8.3-8.4c1.5-0.6,3.1-1,4.7-1.2C8.5-11.2,7.7-9.5,7.1-8.4z"/>
	</g>
</g>
</svg>
