<svg xmlns="http://www.w3.org/2000/svg" xmlns:xlink="http://www.w3.org/1999/xlink" width="30" height="30" viewBox="0 0 100 100"><g><g transform="translate(50 50) scale(0.69 0.69) rotate(0) translate(-50 -50)" style="fill:#000000"><svg fill="#000000" xmlns="http://www.w3.org/2000/svg" xmlns:xlink="http://www.w3.org/1999/xlink" version="1.1" x="0px" y="0px" viewBox="0 0 100 100" enable-background="new 0 0 100 100" xml:space="preserve"><path d="M91.2,77.7H79.3V20.3c0-4.7-3.6-8.5-8.2-8.9c-0.2-0.1-0.5-0.1-0.7-0.1H15.7c-0.3,0-0.5,0.1-0.7,0.1  c-4.5,0.4-8.1,4.2-8.1,8.9c0,1.1,0.9,2,2,2h11.8v57.4c0,4.9,4,8.9,8.9,8.9v0.1h54.7v-0.1c4.9,0,8.9-4,8.9-8.9  C93.2,78.6,92.3,77.7,91.2,77.7z M11.3,18.3c0.8-1.7,2.5-2.9,4.5-2.9c2,0,3.7,1.2,4.5,2.9H11.3z M24.7,79.7V20.3  c0-1.9-0.6-3.6-1.5-5h46.6c0.2,0.1,0.4,0.1,0.6,0.1c2.7,0,4.9,2.2,4.9,4.9v57.4H36.5c-1.1,0-2,0.9-2,2c0,2.7-2.2,4.9-4.9,4.9  S24.7,82.4,24.7,79.7z M84.3,84.6L84.3,84.6L37,84.7c0.6-0.9,1.1-1.9,1.3-3h50.5C88,83.4,86.3,84.6,84.3,84.6z M32.3,30.9  c0-1.1,0.9-2,2-2h25.3c1.1,0,2,0.9,2,2s-0.9,2-2,2H34.3C33.2,32.9,32.3,32,32.3,30.9z M32.3,41.5c0-1.1,0.9-2,2-2h21.1  c1.1,0,2,0.9,2,2s-0.9,2-2,2H34.3C33.2,43.5,32.3,42.6,32.3,41.5z M32.3,52c0-1.1,0.9-2,2-2h33.4c1.1,0,2,0.9,2,2s-0.9,2-2,2H34.3  C33.2,54,32.3,53.1,32.3,52z M32.3,62.6c0-1.1,0.9-2,2-2h28.1c1.1,0,2,0.9,2,2s-0.9,2-2,2H34.3C33.2,64.6,32.3,63.7,32.3,62.6z"></path></svg></g></g></svg>
