<svg xmlns="http://www.w3.org/2000/svg" xmlns:xlink="http://www.w3.org/1999/xlink" width="30" height="30" viewBox="0 0 100 100"><g><g transform="translate(50 50) scale(0.69 0.69) rotate(0) translate(-50 -50)" style="fill:#000000"><svg fill="#000000" xmlns="http://www.w3.org/2000/svg" xmlns:xlink="http://www.w3.org/1999/xlink" viewBox="0 0 24 24" version="1.1" x="0px" y="0px"><title>icon/book</title><desc>Created with Sketch.</desc><g stroke="none" stroke-width="1" fill="none" fill-rule="evenodd"><path d="M5,5.73246242 L5,19 C5,19.5524608 5.44774538,20 6,20 L7,20 L7,6 L6,6 C5.63573235,6 5.29418643,5.90262301 5,5.73246242 L5,5.73246242 Z M4,4 C4,2.89515137 4.89556369,2 6,2 L17.5,2 C17.7761424,2 18,2.22385763 18,2.5 L18,5 L18.5,5 C18.7761424,5 19,5.22385763 19,5.5 L19,20.5 C19,20.7761424 18.7761424,21 18.5,21 L6,21 C4.89556369,21 4,20.1048486 4,19 L4,4 Z M18,6 L8,6 L8,20 L18,20 L18,6 Z M17,5 L17,3 L6,3 C5.44774538,3 5,3.44753924 5,4 C5,4.55246076 5.44774538,5 6,5 L17,5 Z" fill="#000000" fill-rule="nonzero"></path></g></svg></g></g></svg>
