<?xml version="1.0" encoding="utf-8"?>
<!-- Generator: Adobe Illustrator 27.0.0, SVG Export Plug-In . SVG Version: 6.00 Build 0)  -->
<svg version="1.1" id="Layer_1" xmlns="http://www.w3.org/2000/svg" xmlns:xlink="http://www.w3.org/1999/xlink" x="0px" y="0px"
	 width="30" height="30" viewBox="0 0 30 30" style="enable-background:new 0 0 30 30;" xml:space="preserve">
<style type="text/css">
	.st0{fill-rule:evenodd;clip-rule:evenodd;fill:#D4E9F2;}
</style>
<g>
	<g transform="translate(50 50) scale(0.69 0.69) rotate(0) translate(-50 -50)">
		<g>
			<path class="st0" d="M11,10.3H0.2V6.1V-7.6H11V10.3z M-9-11.7c5-0.9,7,2.6,7.4,3.4V6.1v2.3C-2.8,7.2-4.7,6-7.4,6
				c-0.5,0-1,0-1.5,0.1V-8.5V-11.7z M-0.2-9.4c-0.8-1.5-3.7-5.4-9.9-3.9c-0.4,0.1-0.7,0.5-0.7,0.9v3h-2.6c-0.5,0-0.9,0.4-0.9,0.9
				v19.7c0,0.5,0.4,0.9,0.9,0.9h25.2c0.5,0,0.9-0.4,0.9-0.9V-8.5c0-0.5-0.4-0.9-0.9-0.9H-0.2z"/>
		</g>
	</g>
</g>
</svg>
