<?xml version="1.0" encoding="utf-8"?>
<!-- Generator: Adobe Illustrator 27.0.0, SVG Export Plug-In . SVG Version: 6.00 Build 0)  -->
<svg version="1.1" id="Layer_1" xmlns="http://www.w3.org/2000/svg" xmlns:xlink="http://www.w3.org/1999/xlink" x="0px" y="0px"
	 width="30" height="30" viewBox="0 0 30 30" style="enable-background:new 0 0 30 30;" xml:space="preserve">
<style type="text/css">
	.st0{fill:#D4E9F2;}
</style>
<g>
	<g transform="translate(50 50) scale(0.69 0.69) rotate(0) translate(-50 -50)">
		<path class="st0" d="M1.6-9.9c-0.7-0.3-1.5-0.4-2.2-0.4c-3,0-5.6,2.3-6,5.3c0,0.2,0,0.5,0,0.7c0,3.3,2.7,6,6,6c3.3,0,6-2.7,6-6
			C5.3-6.8,3.8-9,1.6-9.9z M-0.7,0.8c-2.8,0-5.1-2.3-5.1-5.1c0-0.2,0-0.4,0-0.6c0.3-2.6,2.5-4.5,5.1-4.5c0.7,0,1.3,0.1,1.9,0.4
			c2,0.8,3.2,2.7,3.2,4.8C4.4-1.5,2.1,0.8-0.7,0.8z M1.8-4.7l-3.6-2.7c-0.1-0.1-0.3-0.1-0.5,0s-0.2,0.2-0.2,0.4v5.4
			c0,0.2,0.1,0.3,0.2,0.4c0.1,0,0.1,0,0.2,0c0.1,0,0.2,0,0.3-0.1L1.8-4c0.1-0.1,0.2-0.2,0.2-0.4S1.9-4.6,1.8-4.7z M-1.7-2.5v-3.6
			l2.4,1.8L-1.7-2.5z M11.8-12.6h-25c-0.6,0-1.1,0.5-1.1,1.1V6.2c0,0.6,0.5,1.1,1.1,1.1h10.5l-0.2,1.9c0,0.1-0.1,1.1-2,1.1
			c-0.2,0-0.4,0.2-0.4,0.4s0.2,0.4,0.4,0.4h8.3c0.2,0,0.5-0.2,0.5-0.4s-0.2-0.4-0.5-0.4c-1.8,0-2-1-2-1.1L1.3,7.3h10.5
			c0.6,0,1.1-0.5,1.1-1.1v-17.7C12.9-12.1,12.4-12.6,11.8-12.6z M-2.5,10.2C-2,9.7-2,9.2-2,9.2l0.2-2h2.2l0.2,1.9c0,0,0,0.5,0.4,1
			H-2.5z M12,6.2c0,0.1-0.1,0.2-0.2,0.2h-25c-0.1,0-0.2-0.1-0.2-0.2V3.9H12L12,6.2L12,6.2z M12,3h-25.4v-14.6c0-0.1,0.1-0.2,0.2-0.2
			h25c0.1,0,0.2,0.1,0.2,0.2L12,3L12,3z"/>
	</g>
</g>
</svg>
