<?xml version="1.0" encoding="utf-8"?>
<!-- Generator: Adobe Illustrator 27.0.0, SVG Export Plug-In . SVG Version: 6.00 Build 0)  -->
<svg version="1.1"
	 id="Layer_1" xmlns:svg="http://www.w3.org/2000/svg" xmlns:inkscape="http://www.inkscape.org/namespaces/inkscape" xmlns:sodipodi="http://sodipodi.sourceforge.net/DTD/sodipodi-0.dtd" xmlns:rdf="http://www.w3.org/1999/02/22-rdf-syntax-ns#" xmlns:cc="http://creativecommons.org/ns#" xmlns:dc="http://purl.org/dc/elements/1.1/"
	 xmlns="http://www.w3.org/2000/svg" xmlns:xlink="http://www.w3.org/1999/xlink" x="0px" y="0px" width="30" height="30" viewBox="0 0 30 30"
	 style="enable-background:new 0 0 30 30;" xml:space="preserve">
<style type="text/css">
	.st0{fill:#D4E9F2;}
</style>
<g>
	<g transform="translate(50 50) scale(0.69 0.69) rotate(0) translate(-50 -50)">
		<g transform="translate(0,-952.36218)">
			<path class="st0" d="M-8.5,942.3c-2.5,0-4.5,2-4.5,4.5v9.6c0,2.5,2,4.5,4.5,4.5H7.1c2.5,0,4.5-2,4.5-4.5v-9.6
				c0-2.5-2-4.5-4.5-4.5C7.1,942.3-8.5,942.3-8.5,942.3z M-8.5,944.1H7.1c1.5,0,2.7,1.2,2.7,2.7v9.6c0,1.5-1.2,2.7-2.7,2.7H-8.5
				c-1.5,0-2.7-1.2-2.7-2.7v-9.6C-11.2,945.3-10,944.1-8.5,944.1z M-3.4,947.7v7.8l7.2-3.9L-3.4,947.7z"/>
		</g>
	</g>
</g>
</svg>
