<svg version="1.1" id="Layer_1" xmlns="http://www.w3.org/2000/svg" xmlns:xlink="http://www.w3.org/1999/xlink" x="0px" y="0px"
	 width="30px" height="30px" viewBox="-100 -100 700 700" enable-background="new 0 0 512 512" xml:space="preserve">
<path fill="#000000" opacity="1.000000" stroke="none" 
	d="
M1.000000,300.468658 
	C4.210655,296.552826 2.920149,291.990356 3.391235,288.091553 
	C6.081734,265.824585 10.778925,243.993332 16.219788,222.281326 
	C21.974184,199.318161 29.757824,177.041977 40.571533,156.019012 
	C51.841824,134.108414 65.970703,114.270302 87.201904,100.608330 
	C99.067749,92.972809 112.183235,89.335182 126.219101,88.645676 
	C151.318115,87.412697 175.131836,94.284859 199.113892,100.088966 
	C216.297287,104.247673 233.477676,108.593567 251.073563,110.441490 
	C263.726196,111.770256 276.176453,108.823166 288.466980,106.065697 
	C309.963745,101.242760 331.292877,95.635246 352.864716,91.194458 
	C376.457916,86.337563 400.003998,85.677628 422.094635,97.624870 
	C432.358612,103.175926 441.018433,110.693748 448.905212,119.482437 
	C461.509735,133.528351 470.977356,149.420761 478.523743,166.447205 
	C489.093475,190.295166 496.764313,215.157379 502.344666,240.655518 
	C506.305817,258.755127 509.391968,276.982971 511.544189,295.396484 
	C512.084106,300.015839 511.836243,304.673981 512.865967,309.619263 
	C513.000000,325.687561 513.000000,341.375122 513.000000,357.531342 
	C511.948608,365.700348 511.234924,373.454865 509.287628,381.011047 
	C506.437347,392.071167 502.135345,402.605347 494.576050,411.170868 
	C487.138885,419.597992 477.566193,424.607269 465.940033,425.406830 
	C445.762970,426.794495 428.209869,419.607330 411.477417,409.466919 
	C393.688049,398.685883 377.363007,385.998840 361.874268,372.114685 
	C353.877045,364.945984 346.060242,357.498138 336.734467,351.858612 
	C323.303986,343.736877 308.542847,339.487549 293.400299,336.448181 
	C278.542664,333.466064 263.422424,332.654816 248.308548,333.413605 
	C221.717346,334.748657 195.981979,339.561737 173.179779,354.448303 
	C165.104004,359.720642 158.311386,366.635468 151.132812,373.018158 
	C133.107010,389.045410 114.045547,403.637512 92.734230,415.023590 
	C78.602074,422.574036 63.584217,426.954865 47.271236,425.351074 
	C33.649216,424.011841 23.479492,417.188782 15.614218,406.222504 
	C7.826905,395.364899 4.758937,382.918213 2.645605,370.083527 
	C2.481914,369.089386 2.486284,368.083740 1.304801,367.193237 
	C1.000000,344.979095 1.000000,322.958221 1.000000,300.468658 
M44.368526,216.685760 
	C39.659290,232.577118 35.657032,248.630920 32.652367,264.945496 
	C28.533470,287.310120 26.081444,309.841400 25.389380,332.558990 
	C25.187290,339.192780 25.846949,345.826599 26.137094,352.450226 
	C26.571011,362.355988 28.407007,371.861633 31.420258,381.184906 
	C35.951153,395.203949 47.000973,402.244446 59.947788,399.380554 
	C67.427109,397.726074 74.695160,395.143738 81.441452,391.587555 
	C102.151703,380.670532 120.075882,365.854523 137.478287,350.408203 
	C148.672211,340.472504 160.138412,331.235138 173.937241,324.796997 
	C199.429642,312.903015 226.397919,308.593781 254.069473,307.776764 
	C268.805695,307.341705 283.505341,309.024963 298.056396,311.651855 
	C327.573578,316.980560 353.401794,329.433899 374.936890,350.612579 
	C386.421204,361.906799 398.941132,372.052673 412.366364,380.966431 
	C424.798615,389.220886 437.328674,397.619232 452.448303,400.104370 
	C465.246948,402.208038 473.069458,400.599182 479.860535,387.092651 
	C486.992188,372.908813 487.610443,357.395294 488.575439,342.028809 
	C489.147827,332.913849 488.646057,323.766235 487.668915,314.659454 
	C486.821167,306.758881 486.501282,298.787048 485.330261,290.938934 
	C483.184052,276.555176 480.847473,262.201721 477.729889,247.972366 
	C472.214905,222.800842 465.066132,198.187698 454.025208,174.830078 
	C447.615112,161.269150 440.010864,148.501175 429.730713,137.393417 
	C422.523773,129.606277 414.288116,123.408195 404.571930,119.249466 
	C387.933990,112.128098 370.759216,113.582916 353.660278,116.795891 
	C331.373993,120.983589 309.669952,127.794304 287.356628,131.916519 
	C274.451172,134.300720 261.457916,136.480362 248.333099,135.189850 
	C226.195557,133.013123 204.707275,127.326317 183.175995,122.011063 
	C166.019226,117.775711 149.039993,113.257233 130.982605,114.193031 
	C112.941223,115.127998 98.383865,122.890396 86.165428,135.188797 
	C77.643448,143.766541 70.955872,153.945755 65.185074,164.709518 
	C56.427551,181.044159 50.380703,198.415543 44.368526,216.685760 
z"/>
<path fill="#000000" opacity="1.000000" stroke="none" 
	d="
M186.190155,258.505829 
	C178.381393,259.247223 175.964310,264.154694 173.417725,270.613434 
	C164.913040,292.183319 144.214951,299.315338 123.921776,292.001923 
	C112.474861,287.876617 104.360207,279.036591 101.681435,266.453918 
	C100.874466,262.663513 99.482193,260.813110 95.074112,260.039917 
	C77.537827,256.963989 65.440453,238.709793 66.321846,220.714676 
	C67.148239,203.842255 79.088402,190.061172 96.625412,185.890045 
	C99.934914,185.102905 100.981407,183.524124 101.575562,180.752029 
	C107.232750,154.357925 140.482391,142.509857 161.508438,159.338242 
	C168.897003,165.251755 174.067520,172.468414 175.366776,182.020950 
	C175.896912,185.918808 179.146515,185.784821 181.667755,186.530426 
	C190.871704,189.252304 198.371979,194.074310 203.786636,202.271805 
	C216.728607,221.865265 208.307831,250.055893 186.190155,258.505829 
M94.449059,230.008774 
	C97.191200,233.656982 100.831108,235.128906 105.359871,234.675110 
	C107.007950,234.509964 108.702438,234.521255 110.350777,234.692490 
	C120.284721,235.724533 126.431511,238.738708 125.343193,250.547028 
	C125.078789,253.415909 125.837311,256.145294 126.328445,258.919067 
	C127.315910,264.495819 133.404419,269.896851 138.423294,269.596741 
	C144.655899,269.223999 150.188232,263.926666 150.597382,257.758942 
	C150.784424,254.939331 150.595993,252.096970 150.678513,249.267853 
	C150.879929,242.360367 154.245682,238.317871 160.842758,236.339828 
	C164.478745,235.249603 168.111588,235.743942 171.743057,235.664734 
	C179.516403,235.495163 184.155121,231.581573 185.343353,223.949463 
	C186.147461,218.784637 181.379730,212.960541 175.010834,211.031921 
	C171.225769,209.885712 167.405930,210.522568 163.605484,210.403992 
	C157.175583,210.203384 153.461258,207.273727 151.644989,201.216568 
	C150.367966,196.957855 150.834747,192.654129 150.625656,188.358017 
	C150.309174,181.854355 145.135208,176.636429 138.873978,176.378555 
	C132.745728,176.126160 127.671829,180.573883 126.264107,186.876160 
	C125.416588,190.670441 125.377525,194.440414 125.343422,198.256287 
	C125.280014,205.350266 120.703377,210.074768 113.609894,210.336227 
	C110.948288,210.434311 108.260948,210.198715 105.621414,210.468353 
	C93.614662,211.694885 88.613594,219.912140 94.449059,230.008774 
z"/>
<path fill="#000000" opacity="1.000000" stroke="none" 
	d="
M389.483551,186.070557 
	C384.290558,199.143799 371.392761,204.369843 358.263000,199.068680 
	C347.135590,194.575974 341.636993,180.540344 346.469269,168.964127 
	C351.505798,156.898682 364.731079,151.853806 377.096954,156.437988 
	C386.854950,160.055450 394.640137,173.659943 389.483551,186.070557 
z"/>
<path fill="#000000" opacity="1.000000" stroke="none" 
	d="
M403.495667,202.153564 
	C413.579315,198.370758 422.727081,199.641708 430.000763,207.003326 
	C436.713196,213.796875 438.338165,222.682251 434.932526,231.538742 
	C431.354706,240.843048 423.100372,247.402466 410.374268,246.326736 
	C400.411194,245.484543 392.244019,237.401276 390.599060,227.470779 
	C388.593842,215.365250 394.838165,206.244751 403.495667,202.153564 
z"/>
<path fill="#000000" opacity="1.000000" stroke="none" 
	d="
M322.092102,246.359863 
	C309.143524,246.201889 300.323364,235.128876 299.679718,226.443390 
	C298.742401,213.794556 304.942780,204.006058 315.854156,201.124512 
	C327.149567,198.141525 335.901031,201.975525 341.798859,209.877228 
	C346.609772,216.322739 347.368256,230.278198 341.156555,237.510284 
	C336.279327,243.188705 330.228912,246.534439 322.092102,246.359863 
z"/>
<path fill="#000000" opacity="1.000000" stroke="none" 
	d="
M345.120209,264.596008 
	C348.089539,251.239120 356.893921,244.920593 371.094543,245.663742 
	C381.219086,246.193604 390.168457,255.591019 391.299988,266.880737 
	C392.346466,277.321960 383.695831,288.961273 373.255920,291.158844 
	C361.432007,293.647766 349.182831,286.791229 345.992065,275.751648 
	C344.985870,272.270416 344.035217,268.700928 345.120209,264.596008 
z"/>
</svg>