<svg xmlns="http://www.w3.org/2000/svg" xmlns:xlink="http://www.w3.org/1999/xlink" width="30" height="30" viewBox="0 0 100 100"><g><g transform="translate(50 50) scale(0.69 0.69) rotate(0) translate(-50 -50)" style="fill:#000000"><svg fill="#000000" xmlns:x="http://ns.adobe.com/Extensibility/1.0/" xmlns:i="http://ns.adobe.com/AdobeIllustrator/10.0/" xmlns:graph="http://ns.adobe.com/Graphs/1.0/" xmlns="http://www.w3.org/2000/svg" xmlns:xlink="http://www.w3.org/1999/xlink" version="1.1" x="0px" y="0px" viewBox="0 0 100 100" style="enable-background:new 0 0 100 100;" xml:space="preserve"><g><g i:extraneous="self"><g><path d="M97.5,87.8L92.4,48c-0.1-0.9-0.8-1.8-1.7-2.1l-8.6-3.1c-0.8,1.5-1.6,3.1-2.4,4.6l7.7,2.8l4.4,34.3l-18.3-5.9l-1.3-20.2     c-0.9,0.4-1.9,0.6-3,0.6c-0.7,0-1.5-0.1-2.1-0.3l1.3,20l-16,5.8V50l6.4-2.6l-2.4-4.6L50,45.5l-17.6-7.3c-0.6-0.2-1.3-0.3-1.9-0.1     L9.3,45.9C8.4,46.2,7.8,47,7.6,48L2.5,87.8c-0.1,0.9,0.2,1.7,0.9,2.3c0.7,0.6,1.6,0.7,2.4,0.5l22.9-7.4l20.4,7.4     c0.6,0.2,1.2,0.2,1.7,0l20.4-7.4l22.9,7.4c0.3,0.1,0.5,0.1,0.8,0.1c0.6,0,1.2-0.2,1.6-0.6C97.2,89.5,97.6,88.7,97.5,87.8z      M26.4,78.6L8.1,84.5l4.4-34.3l16.1-5.8L26.4,78.6z M47.4,84.5l-16-5.8l2.2-34.4L47.4,50V84.5z"></path><path d="M67.4,52.7c0.8,1.6,3.1,1.6,3.9,0c0,0,9.1-17.8,11.2-22c2.1-4.2,2.2-8.9,0-13.3C78.9,10.1,70,7.2,62.7,10.9     c-7.3,3.7-10.1,12.8-6.5,19.8C59.8,37.7,67.4,52.7,67.4,52.7z M69.4,17.3c3.9,0,7,3.1,7,7c0,3.9-3.1,7-7,7c-3.9,0-7-3.1-7-7     C62.4,20.5,65.5,17.3,69.4,17.3z"></path></g></g></g></svg></g></g></svg>
