<svg xmlns="http://www.w3.org/2000/svg" xmlns:xlink="http://www.w3.org/1999/xlink" width="30" height="30" viewBox="0 0 100 100"><g><g transform="translate(50 50) scale(0.69 0.69) rotate(0) translate(-50 -50)" style="fill:#000000"><svg fill="#000000" xmlns="http://www.w3.org/2000/svg" xmlns:xlink="http://www.w3.org/1999/xlink" version="1.1" x="0px" y="0px" viewBox="0 0 91 91" enable-background="new 0 0 91 91" xml:space="preserve"><g><path d="M89.37,26.055L46.634,5.75c-0.682-0.322-1.475-0.322-2.157,0L1.748,26.055c-0.877,0.416-1.434,1.299-1.434,2.27   c0,0.969,0.559,1.854,1.434,2.268l42.729,20.3c0.342,0.162,0.709,0.244,1.078,0.244c0.37,0,0.737-0.082,1.079-0.244l42.736-20.3   c0.875-0.414,1.434-1.299,1.434-2.268C90.804,27.354,90.245,26.471,89.37,26.055z M45.555,45.842L8.681,28.325l36.874-17.521   l36.882,17.521L45.555,45.842z"></path><path d="M87.214,43.172L45.555,62.959L3.904,43.172c-1.248-0.602-2.752-0.064-3.348,1.191c-0.596,1.252-0.063,2.75,1.191,3.345   l42.729,20.299c0.342,0.162,0.709,0.244,1.078,0.244c0.37,0,0.737-0.082,1.079-0.244L89.37,47.709   c1.252-0.596,1.785-2.093,1.189-3.345C89.966,43.108,88.466,42.579,87.214,43.172z"></path><path d="M87.214,60.289L45.555,80.078L3.904,60.289c-1.248-0.594-2.752-0.063-3.348,1.191c-0.596,1.252-0.063,2.752,1.191,3.346   l42.729,20.303c0.342,0.162,0.709,0.242,1.078,0.242c0.37,0,0.737-0.08,1.079-0.242L89.37,64.826   c1.252-0.594,1.785-2.094,1.189-3.346C89.966,60.227,88.466,59.695,87.214,60.289z"></path></g></svg></g></g></svg>
