<?xml version="1.0" encoding="utf-8"?>
<!-- Generator: Adobe Illustrator 27.0.0, SVG Export Plug-In . SVG Version: 6.00 Build 0)  -->
<svg version="1.1" id="Layer_1" xmlns="http://www.w3.org/2000/svg" xmlns:xlink="http://www.w3.org/1999/xlink" x="0px" y="0px"
	 width="30" height="30" viewBox="0 0 30 30" style="enable-background:new 0 0 30 30;" xml:space="preserve">
<style type="text/css">
	.st0{fill:#D4E9F2;}
</style>
<g>
	<g transform="translate(50 50) scale(0.69 0.69) rotate(0) translate(-50 -50)">
		<g>
			<path class="st0" d="M13.2,1.8l-3.3-7l1.4,0.4c0.3,0.1,0.6-0.1,0.7-0.4C12.2-5.5,12-5.9,11.7-6L1.8-8.8c0,0,0-0.1,0-0.1
				c0-1.4-1.1-2.6-2.6-2.6c-0.9,0-1.8,0.5-2.2,1.3l-9.8-2.8c-0.3-0.1-0.6,0.1-0.7,0.4c-0.1,0.3,0.1,0.6,0.4,0.7l0,0l1.9,0.6
				l-3.5,7.5c-0.2,0.1-0.4,0.3-0.4,0.6c0,2.6,2.1,4.7,4.7,4.7C-9.2,1.5-8,1-7.1,0.1C-6.2-0.8-5.7-2-5.7-3.2c0-0.3-0.2-0.5-0.4-0.6
				l-3.3-7L-3.3-9c0,0,0,0.1,0,0.1c0,1.2,0.8,2.2,2,2.5V5.2h-1.6c-1.3,0-2.4,1-2.4,2.3v0.3C-6.4,8.1-7.2,9-7.2,10.2V11
				c0,0.3,0.3,0.6,0.6,0.6H5.1c0.3,0,0.6-0.3,0.6-0.6v-0.8c0-1.1-0.8-2.1-1.9-2.3V7.5c0-1.3-1.1-2.3-2.4-2.3h-1.6V-6.4
				C0.6-6.6,1.2-7,1.5-7.7l6.6,1.9L4.6,1.8C4.4,1.9,4.2,2.1,4.2,2.4C4.2,4.9,6.3,7,8.9,7c1.2,0,2.4-0.5,3.3-1.4
				c0.9-0.9,1.4-2.1,1.4-3.3C13.7,2.1,13.5,1.9,13.2,1.8z M-10.4-10.3l3,6.4h-6L-10.4-10.3z M-10.4,0.3c-1.7,0-3.2-1.2-3.5-2.9h7
				C-7.2-1-8.7,0.3-10.4,0.3z M4.5,10.2v0.2H-6v-0.2C-6,9.5-5.4,9-4.8,9h8.2C4,9,4.5,9.5,4.5,10.2z M2.7,7.5v0.3h-6.8V7.5
				c0-0.6,0.5-1.2,1.2-1.2h4.4C2.1,6.4,2.7,6.9,2.7,7.5z M-0.7-7.5c-0.8,0-1.4-0.6-1.4-1.4s0.6-1.4,1.4-1.4c0.8,0,1.4,0.6,1.4,1.4
				c0,0.1,0,0.2,0,0.3c0,0,0,0,0,0.1c0,0,0,0,0,0.1C0.4-7.9-0.1-7.5-0.7-7.5z M11.9,1.7h-6l3-6.4L11.9,1.7z M8.9,5.8
				c-1.7,0-3.2-1.2-3.5-2.9h7C12.1,4.6,10.7,5.9,8.9,5.8z"/>
		</g>
	</g>
</g>
</svg>
