<svg xmlns="http://www.w3.org/2000/svg" xmlns:xlink="http://www.w3.org/1999/xlink" width="30" height="30" viewBox="0 0 100 100"><g><g transform="translate(50 50) scale(0.69 0.69) rotate(0) translate(-50 -50)" style="fill:#000000"><svg fill="#000000" xmlns="http://www.w3.org/2000/svg" data-name="Layer 1" viewBox="0 0 512 512" x="0px" y="0px"><title>b1</title><g data-name="Group"><path data-name="Compound Path" d="M494.164,298.86,438.169,178.92l24.17,6.936a10,10,0,1,0,5.515-19.225L299.784,118.4c.035-.716.055-1.436.055-2.16a43.826,43.826,0,0,0-82.091-21.38L49.661,46.631a10,10,0,1,0-5.515,19.225l33.169,9.518L17.243,204.048a10,10,0,0,0-6.7,9.431,80.176,80.176,0,0,0,136.988,56.6,79.259,79.259,0,0,0,23.924-56.6,10,10,0,0,0-7.292-9.619L108.334,84.275l103.882,29.808c-.035.716-.055,1.436-.055,2.161A43.908,43.908,0,0,0,246,158.919V357H218.4c-22.055,0-40.4,17.7-40.4,39.756v5.805a40.305,40.305,0,0,0-32,39.195v14A10.561,10.561,0,0,0,156.4,466H355.6A10.561,10.561,0,0,0,366,455.756v-14a40.305,40.305,0,0,0-32-39.195v-5.805C334,374.7,315.653,357,293.6,357H266V158.919a43.99,43.99,0,0,0,28.252-21.3L407.441,170.1l-60.2,128.945a10,10,0,0,0-6.7,9.431,80.176,80.176,0,0,0,136.988,56.6,79.259,79.259,0,0,0,23.924-56.6A10,10,0,0,0,494.164,298.86ZM90.747,93.4,141.913,203H39.582Zm0,179.8A59.8,59.8,0,0,1,31.374,223h119.2A60.665,60.665,0,0,1,90.747,273.2ZM346,441.756V446H166v-4.244C166,430.729,175.374,422,186.4,422H325.6C336.626,422,346,430.729,346,441.756Zm-32-45V402H198v-5.244C198,385.729,207.374,377,218.4,377h75.2C304.626,377,314,385.729,314,396.756ZM256,140.083a23.856,23.856,0,1,1,23.172-18.254,10.208,10.208,0,0,0-.332.968q-.141.492-.23.985A23.876,23.876,0,0,1,256,140.083ZM471.913,298H369.582l51.165-109.6Zm-51.166,70.2A59.8,59.8,0,0,1,361.374,318h119.2A60.665,60.665,0,0,1,420.747,368.2Z"></path></g></svg></g></g></svg>
