<?xml version="1.0" encoding="utf-8"?>
<!-- Generator: Adobe Illustrator 27.0.0, SVG Export Plug-In . SVG Version: 6.00 Build 0)  -->
<svg version="1.1" id="Layer_1" xmlns="http://www.w3.org/2000/svg" xmlns:xlink="http://www.w3.org/1999/xlink" x="0px" y="0px"
	 width="30" height="30" viewBox="0 0 30 30" style="enable-background:new 0 0 30 30;" xml:space="preserve">
<style type="text/css">
	.st0{fill:#D4E9F2;}
</style>
<g>
	<g transform="translate(50 50) scale(0.69 0.69) rotate(0) translate(-50 -50)">
		<g>
			<path class="st0" d="M-0.7,3.5c-1.6,0-3,1.3-3,3s1.3,3,3,3c1.6,0,3-1.3,3-3S0.9,3.5-0.7,3.5z M-0.7,8.3c-1,0-1.8-0.8-1.8-1.8
				s0.8-1.8,1.8-1.8c1,0,1.8,0.8,1.8,1.8S0.2,8.3-0.7,8.3z"/>
			<path class="st0" d="M13.7,9.5V-2.2l0,0l0,0v-6.1c0-1-0.8-1.8-1.8-1.8H5.3v-2.2c0-1.5-1.3-2.8-2.8-2.8H-4c-1.5,0-2.8,1.3-2.8,2.8
				v2.2h-6.6c-1,0-1.8,0.8-1.8,1.8v5.5l0,0l0,0V9.5c0,1,0.8,1.8,1.8,1.8h7.4l1,1c0.2,0.2,0.5,0.2,0.7,0.1l1.2-0.7
				c0.1,0.1,0.2,0.1,0.4,0.2l0.3,1.4c0.1,0.3,0.3,0.5,0.6,0.5h2c0.3,0,0.5-0.2,0.6-0.5l0.3-1.4c0.1-0.1,0.2-0.1,0.4-0.2l1.2,0.7
				c0.2,0.1,0.5,0.1,0.7-0.1l0.9-0.9h7.4C12.8,11.3,13.7,10.5,13.7,9.5z M-5.5-12.3c0-0.8,0.7-1.6,1.6-1.6h6.4
				c0.8,0,1.6,0.7,1.6,1.6v2.2h-9.5V-12.3z M3.2,9.2l0.7,1.1l0,0l0,0L3.1,11L2,10.4c-0.2-0.1-0.4-0.1-0.6,0
				c-0.2,0.1-0.5,0.2-0.8,0.4c-0.2,0.1-0.4,0.2-0.4,0.4l-0.2,1.3h-1.1l-0.3-1.2C-1.6,11-1.7,10.9-2,10.8c-0.3-0.1-0.5-0.2-0.8-0.4
				c-0.2-0.1-0.4-0.1-0.6,0l-1.1,0.7l-0.8-0.8l0,0l0.7-1.1c0.1-0.2,0.1-0.4,0-0.6C-4.7,8.3-4.9,8.1-5,7.8C-5,7.6-5.2,7.4-5.4,7.4
				l-1.2-0.3V5.9l1.2-0.3C-5.2,5.6-5,5.5-5,5.2c0.1-0.3,0.2-0.6,0.4-0.8c0.1-0.2,0.1-0.4,0-0.6l-0.7-1.1l0.8-0.8l1.1,0.7
				c0.2,0.1,0.4,0.1,0.6,0C-2.6,2.5-2.3,2.3-2,2.2C-1.8,2.2-1.6,2-1.6,1.8l0.3-1.3h1.1l0.3,1.2C0.2,2,0.3,2.1,0.5,2.2
				c0.3,0.1,0.5,0.2,0.8,0.4c0.2,0.1,0.4,0.1,0.6,0l1.1-0.7l0.8,0.8L3.2,3.7c-0.1,0.2-0.1,0.4,0,0.6c0.1,0.3,0.2,0.5,0.4,0.8
				C3.6,5.3,3.8,5.5,4,5.6l1.3,0.3v1.2L4,7.4C3.8,7.4,3.7,7.6,3.6,7.8C3.5,8.1,3.4,8.4,3.2,8.6C3.1,8.8,3.1,9,3.2,9.2z M12.5,9.5
				c0,0.4-0.2,0.6-0.6,0.6H5.2c0,0,0-0.1-0.1-0.1L4.4,8.9c0.1-0.1,0.1-0.3,0.2-0.4l1.3-0.3c0.3-0.1,0.5-0.3,0.5-0.6v-2
				c0-0.3-0.2-0.5-0.5-0.6L4.5,4.6C4.4,4.4,4.4,4.3,4.3,4.1L5,2.9C5.2,2.7,5.2,2.4,5,2.2L3.5,0.8C3.4,0.6,3.1,0.5,2.8,0.7L1.6,1.4
				C1.5,1.4,1.4,1.3,1.2,1.3L0.8-0.1C0.8-0.4,0.5-0.6,0.2-0.6h-2c-0.3,0-0.5,0.2-0.6,0.5l-0.3,1.4c-0.1,0.1-0.2,0.1-0.4,0.2
				l-1.2-0.7C-4.6,0.6-4.9,0.6-5,0.8l-1.4,1.4c-0.2,0.2-0.2,0.5-0.1,0.7l0.7,1.2C-5.9,4.3-5.9,4.4-6,4.6l-1.3,0.4
				C-7.6,5-7.8,5.2-7.8,5.5v2.1c0,0.3,0.2,0.5,0.5,0.6l1.4,0.3c0.1,0.1,0.1,0.3,0.2,0.4l-0.7,1.2v0.1h-6.8c-0.4,0-0.6-0.2-0.6-0.6
				V-2.2h3.5v0.5c0,1,0.8,1.8,1.8,1.8h1.4c1,0,1.8-0.8,1.8-1.8v-0.5h9.3v0.5c0,1,0.8,1.8,1.8,1.8h1.4c1,0,1.7-0.7,1.8-1.7h3.6V9.5z
				 M-9.2-2.8V-4c0-0.4,0.2-0.6,0.6-0.6h1.4c0.4,0,0.6,0.2,0.6,0.6v1.2l0,0l0,0v1.1c0,0.4-0.2,0.6-0.6,0.6h-1.4
				c-0.4,0-0.6-0.2-0.6-0.6V-2.8L-9.2-2.8L-9.2-2.8z M5.1-1.7V-4c0-0.4,0.2-0.6,0.6-0.6h1.4c0.4,0,0.6,0.2,0.6,0.6v2.3
				c0,0.4-0.2,0.6-0.6,0.6H5.7C5.4-1.1,5.1-1.4,5.1-1.7z M12.5-2.8H8.9V-4c0-1-0.8-1.8-1.8-1.8H5.8C4.7-5.8,4-5,4-4v0.6h-9.3V-4
				c0-1-0.8-1.8-1.8-1.8h-1.4c-1,0-1.8,0.8-1.8,1.8v0.6h-3.6v-4.9c0-0.4,0.2-0.6,0.6-0.6h25.2c0.4,0,0.6,0.2,0.6,0.6V-2.8z"/>
		</g>
	</g>
</g>
</svg>
