<?xml version="1.0" encoding="utf-8"?>
<!-- Generator: Adobe Illustrator 27.0.0, SVG Export Plug-In . SVG Version: 6.00 Build 0)  -->
<svg version="1.1"
	 id="Layer_1" xmlns:svg="http://www.w3.org/2000/svg" xmlns:inkscape="http://www.inkscape.org/namespaces/inkscape" xmlns:sodipodi="http://sodipodi.sourceforge.net/DTD/sodipodi-0.dtd" xmlns:rdf="http://www.w3.org/1999/02/22-rdf-syntax-ns#" xmlns:cc="http://creativecommons.org/ns#" xmlns:dc="http://purl.org/dc/elements/1.1/"
	 xmlns="http://www.w3.org/2000/svg" xmlns:xlink="http://www.w3.org/1999/xlink" x="0px" y="0px" width="30" height="30" viewBox="0 0 30 30"
	 style="enable-background:new 0 0 30 30;" xml:space="preserve">
<style type="text/css">
	.st0{fill:#D4E9F2;}
</style>
<g>
	<g transform="translate(50 50) scale(0.69 0.69) rotate(0) translate(-50 -50)">
		<g transform="translate(0,-952.36218)">
			<path class="st0" d="M-14,941.7c-0.5,0-0.8,0.4-0.8,0.9v4.2c0,0.5,0.4,0.9,0.9,0.9h0.3v12.9c0,0.5,0.4,0.9,0.9,0.9h24
				c0.5,0,0.9-0.4,0.9-0.9v-12.9h0.3c0.5,0,0.9-0.4,0.9-0.9v-4.2c0-0.5-0.4-0.9-0.9-0.9H-14C-14,941.7-14,941.7-14,941.7z
				 M-13,943.5h24.6v2.4H-13V943.5z M-11.8,947.7h22.2v12h-22.2V947.7z M-3.8,948.9c-0.5,0-0.9,0.4-0.9,0.9c0,0.5,0.4,0.9,0.9,0.9
				l0,0h6c0.5,0,0.9-0.4,0.9-0.9c0-0.5-0.4-0.9-0.9-0.9c0,0,0,0,0,0H-3.8C-3.8,948.9-3.8,948.9-3.8,948.9z"/>
		</g>
	</g>
</g>
</svg>
