<?xml version="1.0" encoding="utf-8"?>
<!-- Generator: Adobe Illustrator 27.0.0, SVG Export Plug-In . SVG Version: 6.00 Build 0)  -->
<svg version="1.1" id="Layer_1" xmlns="http://www.w3.org/2000/svg" xmlns:xlink="http://www.w3.org/1999/xlink" x="0px" y="0px"
	 width="30" height="30" viewBox="0 0 30 30" style="enable-background:new 0 0 30 30;" xml:space="preserve">
<style type="text/css">
	.st0{fill:#D4E9F2;}
</style>
<g>
	<g transform="translate(50 50) scale(0.69 0.69) rotate(0) translate(-50 -50)">
		<g>
			<g>
				<path class="st0" d="M-0.7-14.6c7.7,0,13.9,6.2,13.9,13.9S6.9,13.2-0.7,13.2S-14.6,6.9-14.6-0.7S-8.4-14.6-0.7-14.6z M4.6-3.3
					c0.1-0.4,0.2-0.9,0.2-1.3c0-0.7-0.1-1.3-0.4-1.9C4.1-7.2,3.7-7.7,3.2-8.1c-0.5-0.4-1.1-0.8-1.8-1C0.7-9.4,0-9.5-0.9-9.5
					c-0.8,0-1.5,0.1-2.2,0.4C-3.7-8.9-4.3-8.5-4.8-8C-5.3-7.5-5.7-6.9-6-6.2c0,0.1-0.1,0.1-0.1,0.2c-0.4,1,0.3,2.1,1.4,2.1
					c0,0,0,0,0,0C-4-3.9-3.4-4.3-3.2-5C-2.8-6.3-2-6.9-0.8-6.9c0.4,0,0.7,0.1,1,0.2c0.3,0.1,0.6,0.3,0.8,0.5s0.4,0.5,0.5,0.7
					c0.1,0.3,0.2,0.6,0.2,0.9c0,0.2,0,0.4,0,0.5c0,0.2-0.1,0.4-0.2,0.6C1.2-3.3,1.1-3,0.9-2.8C0.6-2.5,0.3-2.3-0.1-1.9
					C-1-1.2-1.6-0.5-1.9,0.2c-0.2,0.5-0.4,1.2-0.5,2.1c-0.1,0.8,0.6,1.6,1.5,1.6c0,0,0,0,0,0c0.8,0,1.4-0.6,1.5-1.3
					c0-0.5,0.1-0.9,0.2-1.1C0.9,1.2,1,1,1.3,0.7c0.3-0.3,0.6-0.6,1-0.9c0.4-0.3,0.7-0.6,1-1s0.6-0.7,0.8-1C4.3-2.5,4.5-2.9,4.6-3.3z
					 M0.8,6.5C0.8,6.5,0.8,6.4,0.8,6.5c0-0.9-0.7-1.6-1.6-1.6h-0.1c-0.9,0-1.6,0.7-1.6,1.6v0c0,0.9,0.7,1.6,1.6,1.6h0.1
					C0,8.1,0.8,7.3,0.8,6.5z"/>
			</g>
		</g>
	</g>
</g>
</svg>
