<svg xmlns="http://www.w3.org/2000/svg" xmlns:xlink="http://www.w3.org/1999/xlink" width="30" height="30" viewBox="0 0 100 100"><g><g transform="translate(50 50) scale(0.69 0.69) rotate(0) translate(-50 -50)" style="fill:#000000"><svg fill="#000000" xmlns="http://www.w3.org/2000/svg" xmlns:xlink="http://www.w3.org/1999/xlink" version="1.1" x="0px" y="0px" viewBox="0 0 512 512" style="enable-background:new 0 0 512 512;" xml:space="preserve"><g><g><path d="M256,19c130.9,0,237,106.1,237,237S386.9,493,256,493S19,386.9,19,256S125.1,19,256,19z M346.7,211.3    c2.1-7.1,3.1-14.8,3.1-22.8c0-11.9-2.4-23-7.1-33.1c-4.6-10.1-11.2-18.8-19.7-26.1c-8.3-7.3-18.4-13-30.2-17    c-11.8-4.2-24.8-6.3-39.1-6.3c-13.4,0-25.9,2.2-37.3,6.7c-11.3,4.5-21.3,10.9-30,19.2c-8.5,8.2-15.4,18.3-20.8,30.2    c-0.6,1.3-1.1,2.5-1.6,3.8c-6.8,17.1,5.8,35.8,24.3,35.8c0.2,0,0.3,0,0.5,0c11.3,0,21.3-7.3,24.9-18.1    c7.3-22.1,20.8-33.1,40.4-33.1c6.3,0,11.9,1.1,17,3.1c5.1,1.9,9.5,4.7,13.2,8.3c3.7,3.6,6.6,7.8,8.5,12.7    c2.1,4.9,3.1,10.3,3.1,16.1c0,3.1-0.2,6.2-0.7,9.2c-0.4,2.8-1.6,6-3.6,9.4c-1.9,3.3-4.8,7.1-8.5,11.4c-3.7,4.2-8.9,9-15.6,14.5    c-15.5,13-26.1,25.3-31.7,36.9c-3.9,8-6.4,20-7.7,35.9c-1.2,14.5,10.2,26.9,24.8,26.9c0.2,0,0.3,0,0.5,0c13,0,23.8-10,24.8-22.9    c0.7-9.1,2-15.6,3.7-19.3c1.5-3.3,4.3-7.1,8.5-11.6c4.3-4.5,10-9.6,17-15.4c6.3-5.2,12-10.6,17.2-16.3c5.2-5.7,9.7-11.6,13.4-17.9    C341.7,225,344.6,218.3,346.7,211.3z M281.2,378.8c0-0.2,0-0.4,0-0.5c0-15-12.2-27.2-27.2-27.2h-1.2c-15,0-27.2,12.2-27.2,27.2    v0.5c0,15,12.2,27.2,27.2,27.2h1.2C269,406,281.2,393.8,281.2,378.8z"></path></g></g></svg></g></g></svg>
