<svg xmlns="http://www.w3.org/2000/svg" xmlns:xlink="http://www.w3.org/1999/xlink" width="30" height="30" viewBox="0 0 100 100"><g><g transform="translate(50 50) scale(0.69 0.69) rotate(0) translate(-50 -50)" style="fill:#000000"><svg fill="#000000" xmlns:dc="http://purl.org/dc/elements/1.1/" xmlns:cc="http://creativecommons.org/ns#" xmlns:rdf="http://www.w3.org/1999/02/22-rdf-syntax-ns#" xmlns:svg="http://www.w3.org/2000/svg" xmlns="http://www.w3.org/2000/svg" xmlns:sodipodi="http://sodipodi.sourceforge.net/DTD/sodipodi-0.dtd" xmlns:inkscape="http://www.inkscape.org/namespaces/inkscape" version="1.1" x="0px" y="0px" viewBox="0 0 100 100"><g transform="translate(0,-952.36218)"><path style="text-indent:0;text-transform:none;direction:ltr;block-progression:tb;baseline-shift:baseline;color:#000000;enable-background:accumulate;" d="m 23.999998,971.36215 c -8.258,0 -15,6.742 -15,15 l 0,31.99995 c 0,8.2581 6.742,15.0001 15,15.0001 l 52,0 c 8.258004,0 15.000004,-6.742 15.000004,-15.0001 l 0,-31.99995 c 0,-8.258 -6.742,-15 -15.000004,-15 l -52,0 z m 0,6 52,0 c 5.037804,0 9.000004,3.9622 9.000004,9 l 0,31.99995 c 0,5.0379 -3.9622,9.0001 -9.000004,9.0001 l -52,0 c -5.0378,0 -9,-3.9622 -9,-9.0001 l 0,-31.99995 c 0,-5.0378 3.9622,-9 9,-9 z m 17,12 0,25.99995 24,-12.9999 -24,-13.00005 z" fill="#000000" fill-opacity="1" stroke="none" marker="none" visibility="visible" display="inline" overflow="visible"></path></g></svg></g></g></svg>
