<?xml version="1.0" encoding="UTF-8"?><svg id="Layer_1" xmlns="http://www.w3.org/2000/svg" width="30" height="30" viewBox="0 0 22.61 19.38"><defs><style>.cls-1{fill:#d4e9f2;}</style></defs><path class="cls-1" d="M22.6,18.68l-1.21-9.47c-.02-.21-.19-.43-.4-.5l-2.05-.74c-.19,.36-.38,.74-.57,1.09l1.83,.67,1.05,8.16-4.35-1.4-.31-4.81c-.21,.1-.45,.14-.71,.14-.17,0-.36-.02-.5-.07l.31,4.76-3.81,1.38V9.68l1.52-.62-.57-1.09-1.52,.64-4.19-1.74c-.14-.05-.31-.07-.45-.02l-5.04,1.86c-.21,.07-.36,.26-.4,.5L0,18.68c-.02,.21,.05,.4,.21,.55,.17,.14,.38,.17,.57,.12l5.45-1.76,4.85,1.76c.14,.05,.29,.05,.4,0l4.85-1.76,5.45,1.76c.07,.02,.12,.02,.19,.02,.14,0,.29-.05,.38-.14,.17-.14,.26-.33,.24-.55Zm-16.91-2.19l-4.35,1.4,1.05-8.16,3.83-1.38-.52,8.14Zm5,1.4l-3.81-1.38,.52-8.18,3.28,1.36v8.21Z"/><path class="cls-1" d="M15.44,10.33c.19,.38,.74,.38,.93,0,0,0,2.16-4.23,2.66-5.23s.52-2.12,0-3.16c-.86-1.74-2.97-2.43-4.71-1.55s-2.4,3.04-1.55,4.71c.86,1.67,2.66,5.23,2.66,5.23Zm.48-8.42c.93,0,1.67,.74,1.67,1.67s-.74,1.67-1.67,1.67-1.67-.74-1.67-1.67,.74-1.67,1.67-1.67Z"/></svg>
