<?xml version="1.0" encoding="utf-8"?>
<!-- Generator: Adobe Illustrator 27.0.0, SVG Export Plug-In . SVG Version: 6.00 Build 0)  -->
<svg version="1.1" id="Layer_1" xmlns="http://www.w3.org/2000/svg" xmlns:xlink="http://www.w3.org/1999/xlink" x="0px" y="0px"
	 width="30" height="30" viewBox="0 0 20 20" style="enable-background:new 0 0 20 20;" xml:space="preserve">
<style type="text/css">
	.st0{fill:#D4E9F2;}
</style>
<path class="st0" d="M15,10.9V2.4c0-0.6-0.5-1.2-1.2-1.2H2.2C1.5,1.2,1,1.7,1,2.4v8.5c0,0.6,0.5,1.2,1.2,1.2h1.6l0.5,5.5l3.5-5.5
	h6.1C14.4,12.1,15,11.5,15,10.9z M7.3,11.3l-2.4,3.8l-0.3-3.8H2.2c-0.2,0-0.4-0.2-0.4-0.4V2.4C1.8,2.1,2,2,2.2,2h11.6
	c0.2,0,0.4,0.2,0.4,0.4v8.5c0,0.2-0.2,0.4-0.4,0.4H7.3z"/>
<path class="st0" d="M18,5.5h-2.2v0.8H18c0.1,0,0.2,0.1,0.2,0.2v7.1c0,0.1-0.1,0.2-0.2,0.2h-1.9l-0.2,2.9l-2.2-2.9H9.1
	c-0.1,0-0.2-0.1-0.2-0.2v-0.7H8.2L8.1,13v0.6c0,0.6,0.4,1,1,1h4.2l3.2,4.3l0.4-4.3H18c0.6,0,1-0.5,1-1V6.5C19,5.9,18.6,5.5,18,5.5z"
	/>
</svg>
