<svg xmlns="http://www.w3.org/2000/svg" xmlns:xlink="http://www.w3.org/1999/xlink" width="30" height="30" viewBox="0 0 100 100"><g><g transform="translate(50 50) scale(0.69 0.69) rotate(0) translate(-50 -50)" style="fill:#000000"><svg fill="#000000" xmlns:dc="http://purl.org/dc/elements/1.1/" xmlns:cc="http://creativecommons.org/ns#" xmlns:rdf="http://www.w3.org/1999/02/22-rdf-syntax-ns#" xmlns:svg="http://www.w3.org/2000/svg" xmlns="http://www.w3.org/2000/svg" xmlns:sodipodi="http://sodipodi.sourceforge.net/DTD/sodipodi-0.dtd" xmlns:inkscape="http://www.inkscape.org/namespaces/inkscape" version="1.1" x="0px" y="0px" viewBox="0 0 100 100"><g transform="translate(0,-952.36215)"><path style="text-indent:0;text-transform:none;direction:ltr;block-progression:tb;baseline-shift:baseline;color:#000000;enable-background:accumulate;" d="m 28.98689,970.45288 c -4.843868,0 -9.081447,1.20616 -13.737983,3.12057 A 1.9984518,1.9973684 0 0 0 14,975.4458 l 0,40.942 a 1.9984518,1.9973684 0 0 0 2.685151,1.8723 c 4.775942,-1.758 8.108319,-2.8709 12.301739,-2.8709 6.690247,0 10.755301,2.1627 14.955668,4.6808 a 1.9984518,1.9973684 0 0 0 2.060698,0 c 4.133097,-2.4778 8.142381,-4.6131 14.643441,-4.6808 1.65681,4.6436 6.105953,7.9886 11.302613,7.9886 1.415496,0 2.764131,-0.2625 4.027727,-0.7177 l 6.244537,10.7036 a 1.9984515,1.9973681 0 1 0 3.434496,-2.0284 l -6.213315,-10.6099 c 2.737601,-2.2023 4.496067,-5.5658 4.496067,-9.3306 0,-5.1938 -3.346907,-9.6405 -7.993008,-11.2964 l 0,-24.6526 a 1.9984518,1.9973684 0 0 0 -1.248908,-1.87235 c -4.656535,-1.91441 -8.894115,-3.12057 -13.737983,-3.12057 -5.979661,0 -12.289021,2.49499 -15.986016,4.68086 -3.696995,-2.18587 -10.006355,-4.68086 -15.986017,-4.68086 z m 0,3.99433 c 4.699003,0 10.946827,2.40057 13.987765,4.11916 l 0,36.41713 c -3.694081,-1.947 -8.060446,-3.5887 -13.987765,-3.5887 -3.945059,0 -7.337201,0.9859 -10.990386,2.2469 l 0,-36.79164 c 3.8491,-1.49109 7.234105,-2.40285 10.990386,-2.40285 z m 31.972033,0 c 3.756282,0 7.141287,0.91176 10.990387,2.40285 l 0,22.56176 c -6.597957,0 -11.989513,5.38868 -11.989513,11.98298 0,0.011 -2.8e-5,0.021 0,0.031 -5.418925,0.1735 -9.508105,1.7231 -12.988638,3.5575 l 0,-36.41713 c 3.040938,-1.71859 9.288762,-4.11916 13.987764,-4.11916 z m 10.990387,28.95899 c 4.438085,0 7.993008,3.553 7.993008,7.9886 0,4.4357 -3.554923,7.9887 -7.993008,7.9887 -4.438086,0 -7.993008,-3.553 -7.993008,-7.9887 0,-4.4356 3.554922,-7.9886 7.993008,-7.9886 z" fill="#000000" fill-opacity="1" stroke="none" marker="none" visibility="visible" display="inline" overflow="visible"></path></g></svg></g></g></svg>
