<svg xmlns="http://www.w3.org/2000/svg" xmlns:xlink="http://www.w3.org/1999/xlink" width="30" height="30" viewBox="0 0 100 100"><g><g transform="translate(50 50) scale(0.69 0.69) rotate(0) translate(-50 -50)" style="fill:#000000"><svg fill="#000000" xmlns="http://www.w3.org/2000/svg" data-name="Layer 1" viewBox="0 0 1024 1024" x="0px" y="0px"><title>icon-01</title><path fill="#000000" d="M804.40888889 257.64977778v468.76444444H199.11111111v-468.76444444h605.29777778m1.024-50.06222222H197.97333333c-27.07911111 0-49.03822222 21.95911111-49.03822222 49.03822222v470.92622222c0 27.07911111 21.95911111 49.03822222 49.03822222 49.03822222h607.45955556c27.07911111 0 49.03822222-21.95911111 49.03822222-49.03822222V256.62577778c0-27.07911111-21.95911111-49.03822222-49.03822222-49.03822222z"></path><path fill="#000000" d="M390.48533333 331.03644445c-27.648 0-50.06222222 22.41422222-50.06222222 50.06222222s22.41422222 50.06222222 50.06222222 50.06222222 50.06222222-22.41422222 50.06222222-50.06222222-22.41422222-50.06222222-50.06222222-50.06222222zM185.23022222 644.15288889l163.95377778-134.94044444 121.17333333 112.64 161.45066667-204.68622223L820.33777778 650.52444445v79.18933333H185.23022222z"></path></svg></g></g></svg>
