<?xml version="1.0" encoding="utf-8"?>
<!-- Generator: Adobe Illustrator 27.0.0, SVG Export Plug-In . SVG Version: 6.00 Build 0)  -->
<svg version="1.1"
	 id="Layer_1" xmlns:svg="http://www.w3.org/2000/svg" xmlns:inkscape="http://www.inkscape.org/namespaces/inkscape" xmlns:sodipodi="http://sodipodi.sourceforge.net/DTD/sodipodi-0.dtd" xmlns:rdf="http://www.w3.org/1999/02/22-rdf-syntax-ns#" xmlns:cc="http://creativecommons.org/ns#" xmlns:dc="http://purl.org/dc/elements/1.1/"
	 xmlns="http://www.w3.org/2000/svg" xmlns:xlink="http://www.w3.org/1999/xlink" x="0px" y="0px" width="30" height="30" viewBox="0 0 30 30"
	 style="enable-background:new 0 0 30 30;" xml:space="preserve">
<style type="text/css">
	.st0{fill:#D4E9F2;}
</style>
<g>
	<g transform="translate(50 50) scale(0.69 0.69) rotate(0) translate(-50 -50)">
		<g transform="translate(0,-952.36218)">
			<path class="st0" d="M-0.7,940.8c-2.4,0-4.6,0.4-6.2,1.2c-1.6,0.8-2.8,1.9-2.8,3.3v12.6c0,1.4,1.2,2.5,2.8,3.3s3.8,1.2,6.2,1.2
				c2.4,0,4.6-0.4,6.2-1.2s2.8-1.9,2.8-3.3v-12.6c0-1.4-1.2-2.6-2.8-3.3C3.8,941.3,1.7,940.8-0.7,940.8z M-0.7,942
				c2.2,0,4.3,0.4,5.7,1.1s2.1,1.5,2.1,2.2c0,0.7-0.7,1.6-2.1,2.2s-3.4,1.1-5.7,1.1c-2.2,0-4.3-0.4-5.7-1.1s-2.1-1.5-2.1-2.2
				s0.7-1.6,2.1-2.2S-3,942-0.7,942z M-8.5,947.6c0.4,0.4,1,0.7,1.6,1c1.6,0.8,3.8,1.2,6.2,1.2c2.4,0,4.6-0.4,6.2-1.2
				c0.6-0.3,1.2-0.6,1.6-1v1.9c0,0.7-0.7,1.6-2.1,2.2c-1.4,0.7-3.4,1.1-5.7,1.1c-2.2,0-4.3-0.4-5.7-1.1c-1.4-0.7-2.1-1.5-2.1-2.2
				V947.6z M-8.5,951.8c0.4,0.4,1,0.7,1.6,1c1.6,0.8,3.8,1.2,6.2,1.2c2.4,0,4.6-0.4,6.2-1.2c0.6-0.3,1.2-0.6,1.6-1v1.9
				c0,0.7-0.7,1.6-2.1,2.2c-1.4,0.7-3.4,1.1-5.7,1.1c-2.2,0-4.3-0.4-5.7-1.1c-1.4-0.7-2.1-1.5-2.1-2.2V951.8L-8.5,951.8z M-8.5,956
				c0.4,0.4,1,0.7,1.6,1c1.6,0.8,3.8,1.2,6.2,1.2c2.4,0,4.6-0.4,6.2-1.2c0.6-0.3,1.2-0.6,1.6-1v1.9c0,0.7-0.7,1.6-2.1,2.2
				c-1.4,0.7-3.4,1.1-5.7,1.1c-2.2,0-4.3-0.4-5.7-1.1c-1.4-0.7-2.1-1.5-2.1-2.2V956z"/>
		</g>
	</g>
</g>
</svg>
