<?xml version="1.0" encoding="utf-8"?>
<!-- Generator: Adobe Illustrator 27.0.0, SVG Export Plug-In . SVG Version: 6.00 Build 0)  -->
<svg version="1.1" id="Layer_1" xmlns="http://www.w3.org/2000/svg" xmlns:xlink="http://www.w3.org/1999/xlink" x="0px" y="0px"
	 width="30" height="30" viewBox="0 0 30 30" style="enable-background:new 0 0 30 30;" xml:space="preserve">
<style type="text/css">
	.st0{fill-rule:evenodd;clip-rule:evenodd;fill:#D4E9F2;}
</style>
<g>
	<g transform="translate(50 50) scale(0.69 0.69) rotate(0) translate(-50 -50)">
		<g>
			<path class="st0" d="M-10.6,5.3c1.2,0,2.2,0.1,3.1,0.7V-6.7v-6.9h2h17.6h2.2v6.9V8.6c0,1.9-2.3,3.5-5.1,3.5s-5.1-1.6-5.1-3.5
				s2.3-3.4,5.1-3.4c1.1,0,2.2,0.1,3,0.7V-6.7H-5.5V8.6c0,1.9-2.3,3.5-5.1,3.5s-5.1-1.6-5.1-3.5S-13.4,5.3-10.6,5.3z"/>
		</g>
	</g>
</g>
</svg>
