<svg version="1.0" xmlns="http://www.w3.org/2000/svg"
 width="21" height="21" viewBox="0 0 215.000000 173.000000"
 preserveAspectRatio="xMidYMid meet">

<g transform="translate(0.000000,173.000000) scale(0.100000,-0.100000)"
fill="#000000" stroke="none">
<path d="M26 1688 c-14 -20 -16 -102 -16 -690 l0 -667 22 -24 c19 -21 106 -47
528 -161 278 -75 511 -136 517 -136 7 0 243 63 525 139 359 98 516 145 525
157 10 14 13 159 13 689 0 742 2 715 -62 715 -17 0 -243 -45 -502 -100 -259
-55 -484 -100 -500 -100 -16 0 -157 27 -315 61 -157 33 -369 78 -471 100 -217
46 -243 47 -264 17z m563 -213 c222 -47 405 -85 407 -85 2 0 4 -277 4 -616 0
-524 -2 -615 -14 -611 -8 3 -201 56 -430 118 l-416 113 0 589 0 589 23 -6 c12
-3 204 -44 426 -91z m1421 -493 l0 -587 -417 -114 c-230 -63 -424 -116 -430
-119 -10 -3 -13 123 -13 611 l0 616 33 6 c17 4 205 44 417 90 212 45 391 83
398 84 9 1 12 -123 12 -587z"/>
<path d="M300 1220 c-25 -25 -26 -62 -1 -84 19 -17 461 -135 507 -136 45 0 74
81 39 110 -16 13 -465 129 -502 130 -13 0 -32 -9 -43 -20z"/>
<path d="M330 722 c-27 -9 -50 -35 -50 -57 0 -52 23 -62 284 -125 232 -57 250
-60 272 -45 30 19 33 74 6 98 -10 9 -120 41 -248 72 -126 31 -233 57 -239 59
-5 2 -17 1 -25 -2z"/>
<path d="M1547 1180 c-125 -32 -234 -63 -242 -70 -35 -29 -7 -110 39 -110 14
0 304 70 458 111 47 12 68 33 68 68 0 35 -28 61 -66 60 -16 0 -131 -27 -257
-59z"/>
<path d="M1564 666 c-133 -34 -249 -67 -258 -75 -17 -14 -21 -47 -10 -76 16
-40 47 -37 297 26 133 33 250 68 259 76 18 17 24 59 10 80 -22 34 -54 30 -298
-31z"/>
</g>
</svg>
