<?xml version="1.0" encoding="UTF-8"?>
<svg id="Layer_2" data-name="Layer 2" xmlns="http://www.w3.org/2000/svg" viewBox="0 0 240 256">
  <g id="Layer_1-2" data-name="Layer 1">
    <path d="M192,96c26.5,0,48-21.5,48-48S218.5,0,192,0s-48,21.5-48,48c0,2.7.25,5.4.65,8l-64.85,36.05c-8.45-7.5-19.6-12.05-31.8-12.05C21.5,80,0,101.5,0,128s21.5,48,48,48c12.2,0,23.3-4.55,31.8-12.05l64.85,36.05c-.45,2.6-.65,5.25-.65,8,0,26.5,21.5,48,48,48s48-21.5,48-48-21.5-48-48-48c-12.2,0-23.3,4.55-31.8,12.05l-64.85-36.05c.45-2.6.65-5.25.65-8s-.25-5.4-.65-8l64.85-36.05c8.45,7.5,19.6,12.05,31.8,12.05Z"/>
  </g>
</svg>