<svg xmlns="http://www.w3.org/2000/svg" xmlns:xlink="http://www.w3.org/1999/xlink" width="30" height="30" viewBox="0 0 100 100"><g><g transform="translate(50 50) scale(0.69 0.69) rotate(0) translate(-50 -50)" style="fill:#000000"><svg fill="#000000" xmlns="http://www.w3.org/2000/svg" xmlns:xlink="http://www.w3.org/1999/xlink" version="1.1" x="0px" y="0px" viewBox="0 0 100 100" enable-background="new 0 0 100 100" xml:space="preserve"><path d="M57.596,19.347c-2.383-0.958-4.903-1.443-7.492-1.443c-10.117,0-18.684,7.56-19.926,17.585  c-0.101,0.815-0.152,1.654-0.152,2.494c0,11.071,9.007,20.077,20.078,20.077c11.072,0,20.08-9.006,20.08-20.077  C70.184,29.739,65.242,22.424,57.596,19.347z M50.104,55.06c-9.417,0-17.078-7.661-17.078-17.077c0-0.717,0.043-1.432,0.129-2.125  c1.057-8.525,8.343-14.954,16.949-14.954c2.204,0,4.347,0.413,6.373,1.227c6.504,2.618,10.707,8.84,10.707,15.853  C67.184,47.399,59.521,55.06,50.104,55.06z M58.256,36.784l-12.091-9.072c-0.456-0.341-1.063-0.396-1.571-0.142  c-0.508,0.254-0.829,0.773-0.829,1.342v18.141c0,0.568,0.321,1.087,0.829,1.342c0.212,0.106,0.442,0.158,0.671,0.158  c0.318,0,0.635-0.102,0.9-0.3l12.092-9.068c0.377-0.283,0.6-0.728,0.6-1.2S58.635,37.067,58.256,36.784z M46.764,44.052v-12.14  l8.092,6.071L46.764,44.052z M91.736,10.455H8.264c-1.939,0-3.518,1.579-3.518,3.52V73.08c0,1.939,1.578,3.518,3.518,3.518H43.3  l-0.589,6.329c-0.026,0.37-0.43,3.618-6.574,3.618c-0.829,0-1.5,0.672-1.5,1.5s0.671,1.5,1.5,1.5h27.726c0.828,0,1.5-0.672,1.5-1.5  s-0.672-1.5-1.5-1.5c-6.145,0-6.549-3.248-6.578-3.683l-0.584-6.265h35.035c1.939,0,3.518-1.578,3.518-3.518V13.975  C95.254,12.034,93.676,10.455,91.736,10.455z M44.22,86.545c1.393-1.665,1.484-3.403,1.483-3.403l0.61-6.544h7.374l0.605,6.454  c0,0.034,0.089,1.809,1.496,3.493H44.22z M92.254,73.08c0,0.285-0.232,0.518-0.518,0.518H8.264c-0.285,0-0.518-0.232-0.518-0.518  v-7.572h84.507V73.08z M92.254,62.508H7.747V13.975c0-0.287,0.232-0.52,0.518-0.52h83.472c0.285,0,0.518,0.233,0.518,0.52V62.508z"></path></svg></g></g></svg>
