<svg height='100px' width='100px'  fill="#000000" xmlns="http://www.w3.org/2000/svg" xmlns:xlink="http://www.w3.org/1999/xlink" version="1.1" x="0px" y="0px" viewBox="0 0 100 100" style="enable-background:new 0 0 100 100;" xml:space="preserve"><path d="M84,20.6c0-0.1,0-0.1-0.1-0.2c0-0.1,0-0.1-0.1-0.2c0-0.1-0.1-0.1-0.1-0.2c0-0.1-0.1-0.1-0.1-0.2c-0.1-0.1-0.2-0.2-0.3-0.3  l-14-14c-0.1-0.1-0.2-0.2-0.3-0.3c0,0-0.1-0.1-0.1-0.1c-0.1,0-0.1-0.1-0.2-0.1c-0.1,0-0.1,0-0.2-0.1c-0.1,0-0.1,0-0.2-0.1  c-0.1,0-0.3,0-0.4,0H18c-1.1,0-2,0.9-2,2v86c0,1.1,0.9,2,2,2h64c1.1,0,2-0.9,2-2V21C84,20.9,84,20.7,84,20.6z M70,11.8l7.2,7.2H70  V11.8z M80,91H20V9h46v12c0,1.1,0.9,2,2,2h12V91z M72,81c0,1.1-0.9,2-2,2H30c-1.1,0-2-0.9-2-2s0.9-2,2-2h40C71.1,79,72,79.9,72,81z   M72,69c0,1.1-0.9,2-2,2H30c-1.1,0-2-0.9-2-2s0.9-2,2-2h40C71.1,67,72,67.9,72,69z M72,57c0,1.1-0.9,2-2,2H30c-1.1,0-2-0.9-2-2  s0.9-2,2-2h40C71.1,55,72,55.9,72,57z M72,45c0,1.1-0.9,2-2,2H30c-1.1,0-2-0.9-2-2s0.9-2,2-2h40C71.1,43,72,43.9,72,45z M30,31h40  c1.1,0,2,0.9,2,2s-0.9,2-2,2H30c-1.1,0-2-0.9-2-2S28.9,31,30,31z"></path></svg>