<?xml version="1.0" encoding="UTF-8"?>
<svg id="Layer_2" data-name="Layer 2" xmlns="http://www.w3.org/2000/svg" viewBox="0 0 211.49 211.49">
  <defs>
    <style>
      .cls-1 {
        fill: #001e61;
      }

      .cls-2 {
        fill: #fff;
      }
    </style>
  </defs>
  <g id="Layer_1-2" data-name="Layer 1">
    <rect class="cls-1" width="211.49" height="211.49"/>
    <path class="cls-2" d="M90.3,135.49c0-9.72,1.18-17.46,3.54-23.22,2.36-5.76,6.67-11.43,12.95-17.02,6.27-5.59,10.45-10.13,12.53-13.64,2.08-3.51,3.12-7.21,3.12-11.1,0-11.74-5.41-17.61-16.23-17.61-5.13,0-9.24,1.58-12.33,4.74-3.09,3.16-4.7,7.52-4.84,13.08h-30.16c.14-13.26,4.42-23.63,12.84-31.13,8.42-7.49,19.92-11.24,34.48-11.24s26.11,3.56,34.22,10.67c8.11,7.11,12.17,17.16,12.17,30.14,0,5.9-1.32,11.47-3.95,16.71-2.64,5.24-7.25,11.05-13.83,17.44l-8.42,8.02c-5.27,5.07-8.29,11-9.05,17.8l-.42,6.35h-26.63ZM87.29,167.37c0-4.63,1.58-8.45,4.73-11.46,3.15-3.01,7.19-4.51,12.12-4.51s8.96,1.5,12.12,4.51c3.15,3.01,4.73,6.83,4.73,11.46s-1.54,8.33-4.63,11.3c-3.09,2.97-7.16,4.46-12.22,4.46s-9.14-1.49-12.22-4.46c-3.09-2.97-4.63-6.74-4.63-11.3Z"/>
  </g>
</svg>