<svg height='100px' width='100px'  fill="#000000" xmlns="http://www.w3.org/2000/svg" xmlns:xlink="http://www.w3.org/1999/xlink" version="1.1" x="0px" y="0px" viewBox="0 0 100 100" enable-background="new 0 0 100 100" xml:space="preserve"><path d="M95,50c0,24.9-20.1,45-45,45S5,74.9,5,50S25.1,5,50,5S95,25.1,95,50z M55.5,67.7c-0.6-0.6-1.3-1.1-2.1-1.4  c-1.7-0.7-3.6-0.7-5.3,0c-0.8,0.3-1.5,0.8-2.1,1.4c-0.6,0.6-1.1,1.3-1.4,2.1c-0.3,0.8-0.5,1.7-0.5,2.6c0,0.9,0.2,1.8,0.5,2.6  c0.3,0.8,0.8,1.5,1.4,2.1c0.6,0.6,1.3,1.1,2.1,1.4c0.8,0.3,1.7,0.5,2.6,0.5c0.9,0,1.8-0.2,2.6-0.5c0.8-0.3,1.5-0.8,2.1-1.4  c0.6-0.6,1.1-1.3,1.4-2.1c0.4-0.8,0.5-1.7,0.5-2.6c0-0.9-0.2-1.8-0.5-2.6C56.5,68.9,56.1,68.2,55.5,67.7z M66.9,29  c-0.8-1.7-1.9-3.2-3.3-4.4c-1.4-1.2-3.1-2.1-5-2.8c-1.9-0.6-4-1-6.3-1c-1.7,0-3.3,0.2-4.7,0.5c-1.5,0.3-2.8,0.7-4.1,1.3  c-1.2,0.5-2.4,1.2-3.5,1.9c-1.1,0.7-2.1,1.5-2.9,2.3l-0.6,0.5l2.9,4.5c0.6,1.1,1.5,1.6,2.8,1.6c0.6,0,1.2-0.2,1.8-0.6  c0.5-0.3,1-0.7,1.7-1c0.6-0.4,1.4-0.7,2.4-1c0.9-0.3,2.1-0.4,3.4-0.4c0.9,0,1.7,0.1,2.5,0.4c0.7,0.2,1.4,0.6,1.9,1  c0.5,0.4,0.9,1,1.2,1.6c0.3,0.6,0.4,1.3,0.4,2.1c0,1.2-0.2,2.3-0.7,3.2c-0.5,0.9-1.2,1.8-1.9,2.5c-0.8,0.8-1.7,1.5-2.6,2.2  c-0.9,0.7-1.8,1.4-2.8,2.2c-0.8,0.7-1.6,1.5-2.2,2.5c-0.6,0.9-0.9,2-0.9,3.4l0,0.3c0,0.2-0.1,0.3,0,0.4L47,59H55l1-6.4  c0.1-0.7,0.4-1.3,0.9-1.8c0.6-0.6,1.4-1.2,2.2-1.9c0.9-0.7,1.8-1.4,2.8-2.1c1-0.8,2-1.8,2.9-2.9c0.9-1.1,1.7-2.4,2.3-3.9  c0.6-1.5,0.9-3.3,0.9-5.4C68.1,32.6,67.7,30.7,66.9,29z"></path></svg>